<svg width="512" height="512" viewBox="0 0 512 512" fill="none" xmlns="http://www.w3.org/2000/svg">
<g clip-path="url(#clip0_46_1227)">
<path d="M512 384V85.3333C512 62.7015 503.01 40.9967 487.006 24.9936C471.003 8.99045 449.298 0 426.667 0L85.3333 0C62.7015 0 40.9967 8.99045 24.9936 24.9936C8.99045 40.9967 0 62.7015 0 85.3333L0 384H98.496L106.667 449.323V512H149.333V469.333H192V512H234.667V469.333H277.333V512H320V469.333H362.667V512H405.333V453.845L413.867 384H512ZM42.6667 341.333V85.3333C42.6667 74.0174 47.1619 63.165 55.1634 55.1634C63.165 47.1619 74.0174 42.6667 85.3333 42.6667H426.667C437.983 42.6667 448.835 47.1619 456.837 55.1634C464.838 63.165 469.333 74.0174 469.333 85.3333V341.333H419.029L429.419 256H82.496L93.1627 341.333H42.6667ZM130.837 298.667H192V341.333H136.171L130.837 298.667ZM234.667 298.667H277.333V341.333H234.667V298.667ZM320 298.667H381.248L376.043 341.333H320V298.667ZM146.837 426.667L141.504 384H192V426.667H146.837ZM234.667 426.667V384H277.333V426.667H234.667ZM365.653 426.667H320V384H370.859L365.653 426.667ZM170.667 213.333H128V106.667H384V213.333H341.333V149.333H170.667V213.333Z" fill="black"/>
</g>
<defs>
<clipPath id="clip0_46_1227">
<rect width="512" height="512" fill="white"/>
</clipPath>
</defs>
</svg>
