<svg width="512" height="512" viewBox="0 0 512 512" fill="none" xmlns="http://www.w3.org/2000/svg">
<path d="M325.479 64.9364L323.849 63.0248C299.798 34.8962 265.573 17.4558 228.68 14.5299C191.787 11.6039 155.24 23.4313 127.057 47.4173L51.1998 112.126C23.0712 136.176 5.63085 170.402 2.70489 207.295C-0.221064 244.187 11.6063 280.734 35.5923 308.918L124.476 413.115C145.712 438.092 174.162 455.879 205.916 464.031L224.42 468.823L234.178 480.262C247.907 496.357 267.468 506.339 288.557 508.011C309.646 509.684 330.535 502.91 346.63 489.181L483.172 372.705C499.267 358.976 509.249 339.415 510.921 318.326C512.594 297.237 505.821 276.348 492.091 260.253L483.795 250.528L485.276 236.5C487.488 214.996 485.324 193.266 478.915 172.619C472.506 151.973 461.984 132.838 447.984 116.366L421.13 84.8851C409.638 71.4488 394.016 62.2022 376.708 58.5925C359.4 54.9828 341.384 57.2138 325.479 64.9364ZM457.289 342.362L320.747 458.838C312.699 465.703 302.254 469.09 291.71 468.253C281.165 467.417 271.385 462.426 264.52 454.379L461.748 286.136C468.613 294.184 472 304.628 471.164 315.173C470.327 325.717 465.336 335.498 457.289 342.362ZM417.641 142.249C428.139 154.607 436.029 168.961 440.834 184.448C445.639 199.935 447.261 216.234 445.602 232.364L443.86 248.973L232.098 429.614L215.894 425.429C192.082 419.303 170.749 405.961 154.819 387.231L110.752 335.573C124.53 333.055 137.397 326.936 148.045 317.836L254.244 227.244C258.268 223.812 260.764 218.922 261.182 213.649C261.6 208.377 259.906 203.155 256.474 199.131C253.042 195.107 248.152 192.612 242.879 192.194C237.607 191.776 232.385 193.469 228.361 196.901L122.161 287.494C114.114 294.358 103.669 297.745 93.1246 296.909C82.5802 296.072 72.7998 291.082 65.9351 283.034C48.8037 262.903 40.3565 236.798 42.4464 210.447C44.5363 184.095 56.9927 159.648 77.0833 142.469L152.94 77.7601C173.072 60.6286 199.176 52.1814 225.528 54.2714C251.879 56.3613 276.326 68.8177 293.506 88.9083L295.136 90.8199C285.003 105.308 279.96 122.748 280.797 140.408C281.633 158.068 288.302 174.953 299.759 188.419L338.584 233.933C342.016 237.957 346.906 240.452 352.179 240.87C357.451 241.289 362.673 239.595 366.697 236.163C370.721 232.73 373.216 227.84 373.634 222.568C374.052 217.296 372.359 212.073 368.927 208.05L330.101 162.536C323.237 154.488 319.85 144.043 320.686 133.499C321.522 122.954 326.513 113.174 334.561 106.309C342.608 99.4446 353.053 96.0578 363.597 96.8941C374.142 97.7304 383.922 102.721 390.787 110.769L417.641 142.249Z" fill="black"/>
</svg>
