<svg width="512" height="512" viewBox="0 0 512 512" fill="none" xmlns="http://www.w3.org/2000/svg">
<g clip-path="url(#clip0_46_1189)">
<path d="M106.667 490.667C85.57 490.667 64.9471 484.411 47.4059 472.69C29.8646 460.969 16.1929 444.31 8.11956 424.82C0.046217 405.329 -2.06614 383.882 2.04962 363.19C6.16538 342.499 16.3244 323.493 31.242 308.575C46.1596 293.658 65.1658 283.499 85.8571 279.383C106.548 275.267 127.996 277.379 147.486 285.453C166.977 293.526 183.636 307.198 195.357 324.739C207.077 342.28 213.333 362.903 213.333 384C213.3 412.279 202.051 439.391 182.054 459.387C162.057 479.384 134.946 490.633 106.667 490.667ZM106.667 320C94.0087 320 81.635 323.753 71.1102 330.786C60.5855 337.818 52.3824 347.814 47.5384 359.508C42.6944 371.203 41.427 384.071 43.8965 396.486C46.3659 408.901 52.4613 420.304 61.4119 429.255C70.3624 438.205 81.7662 444.301 94.1809 446.77C106.596 449.24 119.464 447.972 131.158 443.128C142.853 438.284 152.848 430.081 159.881 419.556C166.913 409.032 170.667 396.658 170.667 384C170.667 367.026 163.924 350.747 151.922 338.745C139.919 326.743 123.641 320 106.667 320ZM405.333 490.667C384.237 490.667 363.614 484.411 346.073 472.69C328.531 460.969 314.86 444.31 306.786 424.82C298.713 405.329 296.601 383.882 300.716 363.19C304.832 342.499 314.991 323.493 329.909 308.575C344.826 293.658 363.832 283.499 384.524 279.383C405.215 275.267 426.662 277.379 446.153 285.453C465.644 293.526 482.303 307.198 494.023 324.739C505.744 342.28 512 362.903 512 384C511.966 412.279 500.717 439.391 480.721 459.387C460.724 479.384 433.613 490.633 405.333 490.667ZM405.333 320C392.675 320 380.302 323.753 369.777 330.786C359.252 337.818 351.049 347.814 346.205 359.508C341.361 371.203 340.094 384.071 342.563 396.486C345.033 408.901 351.128 420.304 360.079 429.255C369.029 438.205 380.433 444.301 392.848 446.77C405.262 449.24 418.131 447.972 429.825 443.128C441.52 438.284 451.515 430.081 458.547 419.556C465.58 409.032 469.333 396.658 469.333 384C469.333 367.026 462.591 350.747 450.588 338.745C438.586 326.743 422.307 320 405.333 320ZM277.333 384V298.667C277.33 295.594 276.663 292.558 275.378 289.768C274.093 286.977 272.22 284.496 269.888 282.496L221.12 240.576C218.817 238.622 216.962 236.195 215.681 233.459C214.4 230.724 213.723 227.745 213.696 224.725C213.599 221.937 214.067 219.158 215.071 216.555C216.076 213.952 217.596 211.579 219.541 209.579L261.419 176.256C265.628 172.451 271.171 170.466 276.839 170.734C282.506 171.001 287.838 173.5 291.669 177.685L347.136 228.885C351.078 232.533 356.251 234.559 361.621 234.56H426.667C432.325 234.56 437.751 232.312 441.752 228.312C445.752 224.311 448 218.885 448 213.227C448 207.569 445.752 202.142 441.752 198.142C437.751 194.141 432.325 191.893 426.667 191.893H369.92L321.344 147.029C309.969 135.324 294.518 128.455 278.207 127.851C261.897 127.247 245.981 132.955 233.771 143.787L191.872 177.067C185.184 183.174 179.868 190.631 176.276 198.945C172.684 207.259 170.897 216.241 171.034 225.297C171.171 234.353 173.229 243.277 177.071 251.478C180.913 259.68 186.453 266.973 193.323 272.875L234.667 308.459V384C234.667 389.658 236.914 395.084 240.915 399.085C244.916 403.086 250.342 405.333 256 405.333C261.658 405.333 267.084 403.086 271.085 399.085C275.086 395.084 277.333 389.658 277.333 384ZM352 21.3333C341.452 21.3333 331.14 24.4612 322.37 30.3215C313.599 36.1819 306.763 44.5114 302.726 54.2568C298.69 64.0022 297.634 74.7257 299.691 85.0714C301.749 95.4171 306.829 104.92 314.288 112.379C321.746 119.838 331.25 124.917 341.595 126.975C351.941 129.033 362.664 127.977 372.41 123.94C382.155 119.903 390.485 113.068 396.345 104.297C402.205 95.5264 405.333 85.2149 405.333 74.6666C405.333 60.5217 399.714 46.9562 389.712 36.9542C379.71 26.9523 366.145 21.3333 352 21.3333Z" fill="black"/>
</g>
<defs>
<clipPath id="clip0_46_1189">
<rect width="512" height="512" fill="white"/>
</clipPath>
</defs>
</svg>
