<svg width="512" height="512" viewBox="0 0 512 512" fill="none" xmlns="http://www.w3.org/2000/svg">
<g clip-path="url(#clip0_46_1234)">
<path d="M253.568 53.3333C253.568 39.1885 259.187 25.6229 269.189 15.621C279.191 5.61903 292.756 0 306.901 0C321.046 0 334.612 5.61903 344.614 15.621C354.616 25.6229 360.235 39.1885 360.235 53.3333C360.235 67.4782 354.616 81.0438 344.614 91.0457C334.612 101.048 321.046 106.667 306.901 106.667C292.756 106.667 279.191 101.048 269.189 91.0457C259.187 81.0438 253.568 67.4782 253.568 53.3333ZM469.333 426.667C463.651 426.538 458.001 427.546 452.714 429.631C447.427 431.717 442.61 434.837 438.546 438.81C434.481 442.782 431.252 447.527 429.046 452.765C426.84 458.003 425.704 463.628 425.702 469.312C425.701 474.995 426.835 480.621 429.038 485.861C431.241 491.1 434.468 495.846 438.53 499.82C442.593 503.795 447.408 506.918 452.694 509.006C457.98 511.094 463.63 512.104 469.312 511.979C480.46 511.732 491.069 507.131 498.867 499.161C506.665 491.19 511.033 480.484 511.035 469.333C511.038 458.182 506.676 447.474 498.882 439.499C491.087 431.525 480.481 426.919 469.333 426.667ZM382.485 482.752C383.577 485.363 384.137 488.165 384.135 490.995C384.133 493.824 383.568 496.625 382.473 499.235C381.377 501.844 379.774 504.209 377.756 506.193C375.738 508.176 373.345 509.738 370.717 510.788C368.09 511.838 365.279 512.355 362.45 512.308C359.621 512.262 356.829 511.653 354.237 510.516C351.645 509.38 349.306 507.74 347.354 505.691C345.402 503.642 343.878 501.225 342.869 498.581L308.928 413.696C304.651 403.006 297.568 393.667 288.427 386.667L198.443 317.781C173.717 302.229 163.2 269.269 174.997 240.491L219.819 150.379L158.912 120.981C143.486 113.52 130.076 102.465 119.808 88.7467L78.912 34.112C75.5258 29.5772 74.0796 23.8828 74.8918 18.2818C75.7039 12.6807 78.7079 7.63162 83.2427 4.24533C87.7776 0.859049 93.4719 -0.58708 99.073 0.225077C104.674 1.03724 109.723 4.04115 113.109 8.576L153.963 63.232C160.107 71.4453 168.213 78.1227 177.429 82.5813L478.635 227.904C481.208 229.09 483.518 230.777 485.432 232.866C487.346 234.954 488.825 237.404 489.782 240.07C490.739 242.737 491.156 245.567 491.007 248.396C490.859 251.226 490.148 253.997 488.917 256.549C487.686 259.1 485.959 261.381 483.837 263.258C481.714 265.135 479.24 266.57 476.557 267.48C473.874 268.39 471.036 268.757 468.21 268.559C465.384 268.36 462.626 267.601 460.096 266.325L316.416 196.992L261.205 312.149L314.347 352.768C329.604 364.439 341.426 380.013 348.565 397.845L382.507 482.731L382.485 482.752ZM145.451 323.733L102.997 356.544L34.0694 303.445C29.5089 300.296 23.9034 299.04 18.4351 299.944C12.9669 300.848 8.06357 303.841 4.7594 308.291C1.45524 312.74 0.0085885 318.3 0.72462 323.796C1.44065 329.292 4.26338 334.295 8.59737 337.749L77.184 390.763C84.6355 396.304 93.6906 399.265 102.976 399.195C112.262 399.126 121.272 396.031 128.64 390.379L175.765 354.197C163.808 346.08 153.517 335.725 145.451 323.733Z" fill="black"/>
</g>
<defs>
<clipPath id="clip0_46_1234">
<rect width="512" height="512" fill="white"/>
</clipPath>
</defs>
</svg>
