<svg width="512" height="512" viewBox="0 0 512 512" fill="none" xmlns="http://www.w3.org/2000/svg">
<g clip-path="url(#clip0_46_1257)">
<path d="M493.248 151.936L441.749 100.416L484.416 57.7493L454.251 27.5839L411.584 70.2506L360.085 18.7519C354.142 12.8078 347.086 8.09266 339.321 4.87568C331.555 1.6587 323.232 0.00292969 314.827 0.00292969C306.421 0.00292969 298.098 1.6587 290.332 4.87568C282.567 8.09266 275.511 12.8078 269.568 18.7519L209.237 79.0826L305.984 175.851L175.851 305.984L79.0827 209.237L18.752 269.568C6.75386 281.57 0.0136719 297.845 0.0136719 314.816C0.0136719 331.786 6.75386 348.062 18.752 360.064L70.2507 411.584L27.584 454.251L57.7493 484.416L100.416 441.749L151.915 493.248C157.858 499.192 164.914 503.907 172.679 507.124C180.445 510.341 188.768 511.997 197.173 511.997C205.579 511.997 213.902 510.341 221.668 507.124C229.433 503.907 236.489 499.192 242.432 493.248L302.763 432.917L206.016 336.149L336.149 206.016L432.896 302.763L493.227 242.432C505.225 230.43 511.965 214.154 511.965 197.184C511.965 180.213 505.246 163.938 493.248 151.936ZM212.267 463.083C210.285 465.066 207.933 466.64 205.343 467.713C202.753 468.787 199.977 469.339 197.173 469.339C194.37 469.339 191.594 468.787 189.004 467.713C186.414 466.64 184.061 465.066 182.08 463.083L48.9173 329.899C44.918 325.898 42.6712 320.473 42.6712 314.816C42.6712 309.159 44.918 303.734 48.9173 299.733L79.0827 269.568L242.432 432.917L212.267 463.083ZM463.083 212.245L432.917 242.432L269.568 79.0826L299.733 48.9173C301.715 46.9338 304.067 45.3602 306.657 44.2867C309.247 43.2131 312.023 42.6605 314.827 42.6605C317.63 42.6605 320.406 43.2131 322.996 44.2867C325.586 45.3602 327.939 46.9338 329.92 48.9173L463.083 182.101C467.076 186.101 469.318 191.522 469.318 197.173C469.318 202.825 467.076 208.246 463.083 212.245Z" fill="black"/>
</g>
<defs>
<clipPath id="clip0_46_1257">
<rect width="512" height="512" fill="white"/>
</clipPath>
</defs>
</svg>
