<svg width="512" height="512" viewBox="0 0 512 512" fill="none" xmlns="http://www.w3.org/2000/svg">
<g clip-path="url(#clip0_46_1168)">
<path d="M204.992 409.6L192.192 494.379C191.208 499.197 188.59 503.528 184.78 506.638C180.97 509.748 176.203 511.446 171.285 511.445C169.852 511.448 168.422 511.305 167.018 511.019C164.273 510.461 161.664 509.368 159.341 507.803C157.018 506.237 155.026 504.229 153.478 501.893C151.931 499.558 150.859 496.94 150.324 494.191C149.788 491.441 149.799 488.612 150.357 485.867L163.157 401.088C164.288 395.54 167.577 390.67 172.3 387.547C177.023 384.424 182.793 383.306 188.341 384.437C193.888 385.569 198.759 388.858 201.882 393.581C205.005 398.304 206.123 404.052 204.992 409.6ZM213.333 53.3334C213.333 42.785 216.461 32.4736 222.321 23.7029C228.182 14.9323 236.511 8.09646 246.256 4.05978C256.002 0.0231085 266.725 -1.03307 277.071 1.02481C287.417 3.08269 296.92 8.1622 304.379 15.621C311.837 23.0798 316.917 32.5829 318.975 42.9285C321.033 53.2742 319.976 63.9978 315.94 73.7431C311.903 83.4885 305.067 91.8181 296.297 97.6784C287.526 103.539 277.215 106.667 266.666 106.667C252.521 106.667 238.956 101.048 228.954 91.0457C218.952 81.0438 213.333 67.4782 213.333 53.3334ZM426.666 149.333C421.008 149.333 415.582 151.581 411.581 155.582C407.58 159.583 405.333 165.009 405.333 170.667V213.333H354.517L329.536 163.371C324.22 152.742 316.049 143.804 305.94 137.557C295.831 131.31 284.182 128 272.298 128H222.25C214.758 127.998 207.502 130.626 201.748 135.425C195.994 140.224 192.106 146.89 190.762 154.261L168.384 277.141C165.904 289.655 167.235 302.624 172.206 314.372C177.177 326.12 185.558 336.107 196.266 343.04L277.333 395.584V490.667C277.333 496.325 279.58 501.751 283.581 505.752C287.582 509.752 293.008 512 298.666 512C304.324 512 309.75 509.752 313.751 505.752C317.752 501.751 320 496.325 320 490.667V384C319.999 380.442 319.109 376.941 317.41 373.815C315.711 370.688 313.257 368.037 310.272 366.101L284.544 349.397L308.65 217.003L322.24 244.203C324.012 247.749 326.737 250.731 330.109 252.815C333.482 254.899 337.368 256.002 341.333 256H405.333V490.667C405.333 496.325 407.58 501.751 411.581 505.752C415.582 509.752 421.008 512 426.666 512C432.324 512 437.75 509.752 441.751 505.752C445.752 501.751 448 496.325 448 490.667V170.667C448 165.009 445.752 159.583 441.751 155.582C437.75 151.581 432.324 149.333 426.666 149.333ZM136.533 339.051C131.471 340.521 126.231 341.289 120.96 341.333C112.888 341.093 104.951 339.198 97.6412 335.765C90.3316 332.333 83.8046 327.436 78.4646 321.378C73.1246 315.32 69.0854 308.23 66.5973 300.547C64.1091 292.865 63.2249 284.753 63.9995 276.715C65.7824 248.787 74.6887 221.782 89.8694 198.274C105.05 174.765 125.999 155.537 150.72 142.421L126.08 269.013C121.442 292.867 125.132 317.591 136.533 339.051Z" fill="black"/>
</g>
<defs>
<clipPath id="clip0_46_1168">
<rect width="512" height="512" fill="white"/>
</clipPath>
</defs>
</svg>
