<svg width="512" height="512" viewBox="0 0 512 512" fill="none" xmlns="http://www.w3.org/2000/svg">
<g clip-path="url(#clip0_46_985)">
<path d="M417.621 14.7413C392.107 4.94933 366.443 0 341.333 0H170.667C145.557 0 119.893 4.94933 94.3573 14.7413C37.9093 36.4587 0 92.288 0 153.685V405.333C0 428.864 19.136 448 42.6667 448H88.3627C97.8987 484.715 131.008 512 170.667 512H341.333C380.992 512 414.101 484.715 423.637 448H469.333C492.864 448 512 428.864 512 405.333V153.685C512 92.288 474.091 36.4587 417.621 14.7413ZM256.533 128.597L207.424 42.6667H304.875L256.533 128.597ZM42.6667 153.685C42.6667 109.824 69.6107 69.9947 109.675 54.5707C125.341 48.4357 141.808 44.5848 158.571 43.136L232.171 171.925L148.885 320H128.021V149.333C128.021 143.675 125.774 138.249 121.773 134.248C117.772 130.248 112.346 128 106.688 128C101.03 128 95.6038 130.248 91.6031 134.248C87.6023 138.249 85.3547 143.675 85.3547 149.333V405.333H42.6667V153.685ZM341.333 469.333H170.667C147.136 469.333 128 450.197 128 426.667V362.667H212.8C201.899 380.48 192 402.965 192 426.667C192 432.325 194.248 437.751 198.248 441.752C202.249 445.752 207.675 448 213.333 448C218.991 448 224.418 445.752 228.418 441.752C232.419 437.751 234.667 432.325 234.667 426.667C234.667 408.96 245.547 389.269 256 374.699C266.453 389.269 277.333 408.981 277.333 426.667C277.333 432.325 279.581 437.751 283.582 441.752C287.583 445.752 293.009 448 298.667 448C304.325 448 309.751 445.752 313.752 441.752C317.752 437.751 320 432.325 320 426.667C320 402.965 310.101 380.48 299.2 362.667H384V426.667C384 450.197 364.864 469.333 341.333 469.333ZM469.333 405.333H426.667V149.333C426.667 143.675 424.419 138.249 420.418 134.248C416.418 130.248 410.991 128 405.333 128C399.675 128 394.249 130.248 390.248 134.248C386.248 138.249 384 143.675 384 149.333V320H197.803L353.515 43.1573C369.536 44.4587 385.92 48.2773 402.304 54.5707C442.389 69.9947 469.333 109.824 469.333 153.685V405.333Z" fill="black"/>
</g>
<defs>
<clipPath id="clip0_46_985">
<rect width="512" height="512" fill="white"/>
</clipPath>
</defs>
</svg>
