<svg width="512" height="512" viewBox="0 0 512 512" fill="none" xmlns="http://www.w3.org/2000/svg">
<g clip-path="url(#clip0_46_1202)">
<path d="M490.667 234.667H444.757C442.918 234.659 441.111 234.181 439.509 233.277C437.907 232.373 436.563 231.074 435.605 229.504L405.611 179.669C396.089 163.947 382.683 150.938 366.682 141.893C350.68 132.848 332.621 128.071 314.24 128.021H233.131C212.779 128.021 194.496 139.328 185.429 157.504L151.616 225.152C149.084 230.213 148.666 236.073 150.455 241.442C152.243 246.811 156.091 251.249 161.152 253.781C166.213 256.313 172.073 256.731 177.442 254.943C182.811 253.154 187.249 249.306 189.781 244.245L223.595 176.597C224.475 174.823 225.836 173.331 227.521 172.29C229.207 171.25 231.15 170.702 233.131 170.709H267.307L229.909 261.867C224.187 275.761 223.546 291.227 228.099 305.547C232.653 319.867 242.109 332.123 254.805 340.16L336.448 392.555C337.953 393.514 339.191 394.839 340.045 396.405C340.899 397.972 341.343 399.73 341.333 401.515V490.688C341.333 496.346 343.581 501.772 347.582 505.773C351.582 509.774 357.009 512.021 362.667 512.021C368.325 512.021 373.751 509.774 377.752 505.773C381.752 501.772 384 496.346 384 490.688V401.515C384.019 392.573 381.781 383.771 377.492 375.925C373.203 368.078 367.003 361.441 359.467 356.629L311.893 326.101L364.565 196.053C366.037 197.973 367.808 199.616 369.067 201.685L399.061 251.541C403.825 259.402 410.531 265.904 418.533 270.425C426.536 274.945 435.566 277.332 444.757 277.355H490.667C496.325 277.355 501.751 275.107 505.752 271.106C509.752 267.106 512 261.679 512 256.021C512 250.363 509.752 244.937 505.752 240.936C501.751 236.936 496.325 234.688 490.667 234.688V234.667ZM309.333 53.3333C309.333 39.1885 314.952 25.6229 324.954 15.621C334.956 5.61903 348.522 0 362.667 0C376.812 0 390.377 5.61903 400.379 15.621C410.381 25.6229 416 39.1885 416 53.3333C416 67.4782 410.381 81.0438 400.379 91.0457C390.377 101.048 376.812 106.667 362.667 106.667C348.522 106.667 334.956 101.048 324.954 91.0457C314.952 81.0438 309.333 67.4782 309.333 53.3333ZM42.6667 64C42.6667 58.3421 44.9143 52.9158 48.9151 48.9151C52.9158 44.9143 58.342 42.6667 64 42.6667H213.333C218.991 42.6667 224.418 44.9143 228.418 48.9151C232.419 52.9158 234.667 58.3421 234.667 64C234.667 69.658 232.419 75.0842 228.418 79.085C224.418 83.0857 218.991 85.3333 213.333 85.3333H64C58.342 85.3333 52.9158 83.0857 48.9151 79.085C44.9143 75.0842 42.6667 69.658 42.6667 64ZM85.3333 256H21.3333C15.6754 256 10.2492 253.752 6.24839 249.752C2.24761 245.751 0 240.325 0 234.667C0 229.009 2.24761 223.583 6.24839 219.582C10.2492 215.581 15.6754 213.333 21.3333 213.333H85.3333C90.9913 213.333 96.4175 215.581 100.418 219.582C104.419 223.583 106.667 229.009 106.667 234.667C106.667 240.325 104.419 245.751 100.418 249.752C96.4175 253.752 90.9913 256 85.3333 256ZM21.3333 149.333C21.3333 143.675 23.5809 138.249 27.5817 134.248C31.5825 130.248 37.0087 128 42.6667 128H128C133.658 128 139.084 130.248 143.085 134.248C147.086 138.249 149.333 143.675 149.333 149.333C149.333 154.991 147.086 160.418 143.085 164.418C139.084 168.419 133.658 170.667 128 170.667H42.6667C37.0087 170.667 31.5825 168.419 27.5817 164.418C23.5809 160.418 21.3333 154.991 21.3333 149.333ZM243.093 393.536C236.928 405.845 219.264 426.667 192 426.667H106.667C101.009 426.667 95.5825 424.419 91.5817 420.418C87.581 416.418 85.3333 410.991 85.3333 405.333C85.3333 399.675 87.581 394.249 91.5817 390.248C95.5825 386.248 101.009 384 106.667 384H192C199.552 384 204.992 374.293 205.056 374.208C210.581 363.947 223.403 359.893 233.749 365.227C238.724 367.767 242.496 372.167 244.246 377.471C245.995 382.776 245.581 388.535 243.093 393.536Z" fill="black"/>
</g>
<defs>
<clipPath id="clip0_46_1202">
<rect width="512" height="512" fill="white"/>
</clipPath>
</defs>
</svg>
