<svg width="512" height="512" viewBox="0 0 512 512" fill="none" xmlns="http://www.w3.org/2000/svg">
<g clip-path="url(#clip0_46_1240)">
<path d="M341.334 53.3334C341.334 42.785 344.462 32.4736 350.323 23.7029C356.183 14.9323 364.513 8.09646 374.258 4.05978C384.003 0.0231085 394.727 -1.03307 405.073 1.02481C415.418 3.08269 424.921 8.1622 432.38 15.621C439.839 23.0798 444.918 32.5829 446.976 42.9285C449.034 53.2742 447.978 63.9978 443.941 73.7431C439.905 83.4885 433.069 91.8181 424.298 97.6784C415.528 103.539 405.216 106.667 394.668 106.667C380.523 106.667 366.957 101.048 356.955 91.0457C346.953 81.0438 341.334 67.4782 341.334 53.3334ZM501.612 435.2C496.511 432.754 490.647 432.433 485.311 434.31C479.974 436.186 475.601 440.105 473.153 445.205C467.889 455.602 458.762 463.523 447.728 467.272C436.695 471.02 424.631 470.297 414.124 465.259L277.889 398.869L306.732 329.664C311.518 320.562 312.885 310.046 310.584 300.022C308.282 289.999 302.465 281.132 294.188 275.029L275.585 262.229L308.588 230.08L209.494 183.467C203.967 189.066 199.612 195.711 196.682 203.013C193.751 210.315 192.306 218.128 192.429 225.995C192.552 233.862 194.241 241.625 197.399 248.832C200.556 256.039 205.117 262.544 210.817 267.968C230.259 281.771 249.737 295.524 269.249 309.227L239.382 380.181L30.6357 279.467C28.1143 278.245 25.377 277.532 22.5801 277.369C19.7833 277.205 16.9815 277.594 14.3349 278.513C8.98991 280.37 4.60123 284.273 2.13436 289.365C0.91289 291.887 0.200005 294.624 0.0364053 297.421C-0.127194 300.218 0.261696 303.02 1.18087 305.666C3.03723 311.011 6.94087 315.4 12.033 317.867L396.033 503.808C407.905 509.183 420.783 511.976 433.814 512C450.042 512.131 465.972 507.646 479.747 499.068C493.523 490.49 504.576 478.173 511.617 463.552C514.03 458.463 514.332 452.625 512.458 447.314C510.583 442.003 506.684 437.648 501.612 435.2ZM341.334 197.995V206.933C341.359 219.132 344.858 231.072 351.42 241.355C357.982 251.639 367.337 259.841 378.39 265.003L436.289 291.84C438.84 293.095 441.616 293.827 444.454 293.994C447.292 294.161 450.135 293.759 452.815 292.811C455.496 291.864 457.96 290.39 460.062 288.477C462.165 286.564 463.864 284.25 465.06 281.67C466.256 279.091 466.924 276.299 467.025 273.458C467.127 270.617 466.659 267.784 465.65 265.126C464.641 262.469 463.111 260.039 461.15 257.981C459.189 255.923 456.836 254.277 454.23 253.141L396.353 226.133C392.696 224.419 389.597 221.708 387.412 218.312C385.227 214.916 384.045 210.972 384.001 206.933V180.693C384.057 169.467 381.506 158.381 376.549 148.308C371.592 138.235 364.365 129.45 355.436 122.645C344.565 112.863 330.605 107.208 315.99 106.667C307.052 106.408 298.157 108.012 289.871 111.376C281.586 114.74 274.091 119.791 267.862 126.208L241.942 151.467L341.334 198.08V197.995ZM241.942 151.467L127.297 97.7707L135.105 81.3227C136.307 78.7915 136.998 76.0484 137.14 73.2499C137.282 70.4515 136.871 67.6525 135.931 65.0129C134.991 62.3732 133.54 59.9446 131.662 57.8655C129.783 55.7865 127.514 54.0979 124.982 52.896C122.451 51.6942 119.708 51.0026 116.91 50.8609C114.111 50.7192 111.312 51.13 108.673 52.07C106.033 53.01 103.604 54.4607 101.525 56.3393C99.4462 58.2178 97.7576 60.4875 96.5557 63.0187L88.6837 79.6374L73.7504 72.5974C71.2164 71.3969 68.4708 70.7073 65.6703 70.5679C62.8698 70.4286 60.0693 70.8422 57.4286 71.7851C54.7879 72.7281 52.3589 74.1819 50.2801 76.0636C48.2013 77.9453 46.5135 80.218 45.313 82.752C44.1126 85.286 43.423 88.0316 43.2836 90.8321C43.1443 93.6326 43.5579 96.4331 44.5008 99.0738C45.4437 101.714 46.8976 104.144 48.7793 106.222C50.661 108.301 52.9337 109.989 55.4677 111.189L70.401 118.187L62.209 135.467C60.9289 138.006 60.1693 140.775 59.9749 143.612C59.7805 146.449 60.1553 149.297 61.0772 151.987C61.9991 154.677 63.4494 157.155 65.3431 159.277C67.2367 161.398 69.5353 163.12 72.1038 164.34C74.6723 165.56 77.4589 166.255 80.2997 166.382C83.1404 166.51 85.9781 166.069 88.6458 165.084C91.3135 164.099 93.7574 162.591 95.8338 160.648C97.9103 158.705 99.5774 156.367 100.737 153.771L109.014 136.32L209.494 183.467C210.134 182.699 241.942 151.467 241.942 151.467Z" fill="black"/>
</g>
<defs>
<clipPath id="clip0_46_1240">
<rect width="512" height="512" fill="white"/>
</clipPath>
</defs>
</svg>
