<svg width="512" height="512" viewBox="0 0 512 512" fill="none" xmlns="http://www.w3.org/2000/svg">
<g clip-path="url(#clip0_46_1181)">
<path d="M499.904 435.2C494.806 432.752 488.944 432.429 483.608 434.301C478.271 436.173 473.897 440.088 471.445 445.184C469.001 450.299 465.562 454.876 461.328 458.647C457.095 462.418 452.153 465.307 446.79 467.147C441.427 468.986 435.752 469.738 430.095 469.359C424.439 468.98 418.915 467.477 413.845 464.939L362.667 442.155V338.709C362.631 329.759 360.735 320.914 357.099 312.735C353.463 304.557 348.167 297.223 341.547 291.2L286.208 243.2L344.811 167.125L479.211 252.651C483.986 255.689 489.773 256.706 495.298 255.478C500.823 254.249 505.634 250.877 508.672 246.101C511.71 241.326 512.727 235.539 511.499 230.014C510.271 224.489 506.898 219.678 502.123 216.64C502.123 216.64 278.976 75.4774 270.357 71.488C257.878 66.5369 244.573 63.996 231.147 64H206.016C197.607 64.0237 189.277 62.3806 181.507 59.1656C173.736 55.9506 166.68 51.2275 160.747 45.2694L121.749 6.25069C117.726 2.36465 112.337 0.214372 106.743 0.262978C101.15 0.311584 95.7992 2.55519 91.8438 6.51056C87.8884 10.4659 85.6448 15.8166 85.5962 21.4101C85.5476 27.0037 87.6979 32.3925 91.5839 36.416L130.581 75.4347C140.466 85.3694 152.222 93.2451 165.17 98.606C178.119 103.967 192.002 106.707 206.016 106.667H230.677L183.915 167.509C175.348 178.707 170.694 192.408 170.667 206.507V272.299C170.679 276.263 169.581 280.151 167.495 283.522C165.41 286.893 162.422 289.612 158.869 291.371L97.1306 322.24C96.3384 322.645 95.5692 323.094 94.8266 323.584L67.3919 311.467C57.1305 306.706 49.1796 298.065 45.2871 287.444C41.3947 276.823 41.8794 265.091 46.6346 254.827C49.0251 249.692 49.2779 243.818 47.3376 238.497C45.3972 233.176 41.4225 228.844 36.2879 226.453C31.1533 224.063 25.2794 223.81 19.9584 225.75C14.6373 227.691 10.3051 231.665 7.91457 236.8C3.19078 246.995 0.526981 258.023 0.0760666 269.25C-0.374848 280.477 1.396 291.683 5.28698 302.224C9.17795 312.765 15.1124 322.434 22.7498 330.676C30.3872 338.918 39.577 345.57 49.7919 350.251L396.053 503.509C407.534 509.094 420.129 512.012 432.896 512.043C442.56 512.029 452.153 510.385 461.269 507.179C471.852 503.482 481.597 497.722 489.939 490.234C498.28 482.745 505.054 473.676 509.867 463.552C512.282 458.468 512.591 452.635 510.725 447.324C508.859 442.013 504.969 437.656 499.904 435.2ZM177.963 329.536C188.616 324.252 197.576 316.089 203.828 305.972C210.079 295.856 213.372 284.191 213.333 272.299V236.437L313.109 323.008C315.274 325.012 317.004 327.44 318.189 330.141C319.375 332.843 319.991 335.759 320 338.709V423.253L145.237 345.899L177.963 329.536ZM373.333 106.667C383.882 106.667 394.193 103.539 402.964 97.6784C411.734 91.8181 418.57 83.4885 422.607 73.7431C426.644 63.9978 427.7 53.2742 425.642 42.9285C423.584 32.5829 418.504 23.0798 411.046 15.621C403.587 8.1622 394.084 3.08269 383.738 1.02481C373.392 -1.03307 362.669 0.0231085 352.924 4.05978C343.178 8.09646 334.849 14.9323 328.988 23.7029C323.128 32.4736 320 42.785 320 53.3334C320 67.4782 325.619 81.0438 335.621 91.0457C345.623 101.048 359.188 106.667 373.333 106.667Z" fill="black"/>
</g>
<defs>
<clipPath id="clip0_46_1181">
<rect width="512" height="512" fill="white"/>
</clipPath>
</defs>
</svg>
