<svg width="512" height="512" viewBox="0 0 512 512" fill="none" xmlns="http://www.w3.org/2000/svg">
<g clip-path="url(#clip0_46_1265)">
<path d="M277.334 42.6664C277.205 36.9845 278.213 31.3342 280.298 26.0472C282.384 20.7602 285.504 15.9431 289.477 11.8787C293.449 7.81433 298.194 4.58454 303.432 2.37899C308.67 0.173438 314.295 -0.963421 319.979 -0.964842C325.662 -0.966264 331.289 0.167782 336.528 2.37071C341.767 4.57364 346.513 7.80106 350.487 11.8635C354.462 15.9259 357.585 20.7414 359.673 26.0274C361.761 31.3133 362.771 36.9631 362.646 42.6451C362.399 53.7931 357.798 64.4016 349.828 72.1997C341.857 79.9977 331.151 84.3657 320 84.3685C308.849 84.3713 298.141 80.0087 290.166 72.2146C282.192 64.4205 277.586 53.8143 277.334 42.6664ZM46.3791 265.749C51.2004 258.986 59.4137 256 70.1871 256C101.12 256 154.56 277.76 207.744 306.645L227.094 276.074L199.467 257.941C184.576 248.17 174.251 232.512 171.115 214.976C167.979 197.44 172.267 179.178 182.848 164.842L210.112 127.978H172.16C168.649 127.978 165.192 128.844 162.096 130.5C158.999 132.156 156.36 134.551 154.411 137.472L124.416 182.464C121.17 186.915 116.33 189.939 110.906 190.905C105.482 191.871 99.8952 190.703 95.3122 187.646C90.7293 184.589 87.5051 179.879 86.3135 174.5C85.1218 169.122 86.0549 163.491 88.9177 158.784L118.912 113.792C124.751 105.02 132.667 97.8275 141.958 92.8548C151.248 87.8822 161.623 85.2837 172.16 85.2904H216.64C230.55 85.2904 244.139 88.8744 256.384 95.3384C257.472 95.8718 438.55 216.917 438.55 216.917C443.246 220.074 446.495 224.968 447.584 230.521C448.672 236.074 447.51 241.832 444.352 246.528C441.195 251.224 436.302 254.473 430.749 255.562C425.196 256.65 419.438 255.488 414.742 252.33L298.432 174.229L261.44 222.037L305.046 242.154C318.912 249.685 329.387 262.229 334.336 277.226L361.494 354.368C362.611 357.755 362.908 361.36 362.362 364.885C361.815 368.41 360.44 371.755 358.349 374.645C356.258 377.535 353.512 379.888 350.335 381.511C347.159 383.133 343.642 383.979 340.075 383.978H255.979L279.851 345.045C293.59 352.149 308.331 359.402 321.259 366.57L297.6 296.32C295.389 289.221 290.468 283.28 283.904 279.786L276.395 275.797C275.84 277.61 275.392 279.445 274.347 281.13L218.816 368.405C215.976 373.146 211.956 377.07 207.148 379.795C202.34 382.521 196.908 383.955 191.382 383.957H168.875C155.572 383.92 142.604 379.786 131.734 372.117C72.6831 330.666 30.0377 288.618 46.3791 265.706V265.749ZM506.539 460.053C502.756 455.847 497.458 453.316 491.809 453.016C486.16 452.716 480.624 454.672 476.416 458.453C468.608 465.472 458.518 469.333 448 469.333C429.014 469.333 409.75 456.853 404.118 440.896C402.649 436.734 399.925 433.13 396.322 430.58C392.719 428.031 388.414 426.662 384 426.662C379.587 426.662 375.282 428.031 371.679 430.58C368.076 433.13 365.352 436.734 363.883 440.896C358.251 456.853 338.987 469.333 320 469.333C301.014 469.333 281.75 456.853 276.118 440.896C274.649 436.734 271.925 433.13 268.322 430.58C264.719 428.031 260.414 426.662 256 426.662C251.587 426.662 247.282 428.031 243.679 430.58C240.076 433.13 237.352 436.734 235.883 440.896C230.251 456.853 210.987 469.333 192 469.333C173.014 469.333 153.75 456.853 148.118 440.896C146.649 436.734 143.925 433.13 140.322 430.58C136.719 428.031 132.414 426.662 128 426.662C123.587 426.662 119.282 428.031 115.679 430.58C112.076 433.13 109.352 436.734 107.883 440.896C102.251 456.853 82.9871 469.333 64.0004 469.333C53.5094 469.342 43.3867 465.466 35.5844 458.453C31.3601 454.788 25.8657 452.929 20.2841 453.275C14.7025 453.622 9.48006 456.146 5.741 460.304C2.00194 464.463 0.0453112 469.923 0.292326 475.51C0.53934 481.097 2.97025 486.363 7.06173 490.176C22.6841 504.236 42.9611 512.011 63.9791 512C87.8701 511.797 110.775 502.445 127.979 485.866C144.576 501.93 167.936 512 191.979 512C216.022 512 239.382 501.93 255.979 485.866C272.576 501.93 295.936 512 319.979 512C344.022 512 367.382 501.93 383.979 485.866C401.183 502.445 424.088 511.797 447.979 512C469.035 512 489.259 504.256 504.896 490.176C509.102 486.393 511.634 481.095 511.934 475.446C512.234 469.797 510.278 464.26 506.496 460.053H506.539Z" fill="black"/>
</g>
<defs>
<clipPath id="clip0_46_1265">
<rect width="512" height="512" fill="white"/>
</clipPath>
</defs>
</svg>
