<svg width="512" height="512" viewBox="0 0 512 512" fill="none" xmlns="http://www.w3.org/2000/svg">
<g clip-path="url(#clip0_46_1259)">
<path d="M42.6666 42.6668C42.6666 37.0089 44.9142 31.5827 48.915 27.5819C52.9158 23.5811 58.342 21.3335 64 21.3335H168.875C186.045 21.3283 202.963 25.4682 218.191 33.4015C233.419 41.3348 246.506 52.827 256.341 66.9015L365.44 222.998C367.047 225.296 368.185 227.889 368.79 230.627C369.394 233.366 369.454 236.197 368.964 238.958C368.475 241.72 367.447 244.358 365.938 246.722C364.429 249.086 362.469 251.129 360.171 252.736C357.872 254.343 355.279 255.481 352.541 256.086C349.802 256.69 346.971 256.75 344.21 256.261C341.448 255.771 338.81 254.743 336.446 253.234C334.082 251.725 332.039 249.766 330.432 247.467L256.341 141.44L76.6506 273.216C72.0847 276.566 66.3751 277.964 60.778 277.104C55.181 276.244 50.1548 273.195 46.8053 268.63C43.4558 264.064 42.0573 258.354 42.9175 252.757C43.7776 247.16 46.826 242.134 51.392 238.784L231.893 106.518L221.333 91.4348C215.445 82.9758 207.6 76.064 198.467 71.2875C189.333 66.511 179.182 64.011 168.875 64.0002H64C58.342 64.0002 52.9158 61.7526 48.915 57.7518C44.9142 53.751 42.6666 48.3248 42.6666 42.6668ZM476.437 437.12C468.628 444.136 458.498 448.012 448 448C438.718 448.015 429.631 445.336 421.842 440.289C414.052 435.241 407.895 428.041 404.117 419.563C402.644 415.408 399.92 411.812 396.319 409.268C392.719 406.725 388.419 405.359 384.011 405.359C379.602 405.359 375.302 406.725 371.702 409.268C368.101 411.812 365.377 415.408 363.904 419.563C360.114 428.035 353.953 435.23 346.164 440.278C338.375 445.326 329.292 448.012 320.011 448.012C310.729 448.012 301.646 445.326 293.857 440.278C286.069 435.23 279.907 428.035 276.117 419.563C274.644 415.408 271.92 411.812 268.319 409.268C264.719 406.725 260.419 405.359 256.011 405.359C251.602 405.359 247.302 406.725 243.702 409.268C240.101 411.812 237.377 415.408 235.904 419.563C232.114 428.035 225.953 435.23 218.164 440.278C210.375 445.326 201.292 448.012 192.011 448.012C182.729 448.012 173.646 445.326 165.857 440.278C158.069 435.23 151.907 428.035 148.117 419.563C146.644 415.408 143.92 411.812 140.319 409.268C136.719 406.725 132.419 405.359 128.011 405.359C123.602 405.359 119.302 406.725 115.702 409.268C112.101 411.812 109.377 415.408 107.904 419.563C104.12 428.041 97.9586 435.24 90.166 440.288C82.3735 445.335 73.2843 448.014 64 448C53.5026 447.988 43.3779 444.107 35.5626 437.099C31.3376 433.407 25.8282 431.528 20.2279 431.87C14.6276 432.211 9.38723 434.745 5.64177 438.922C1.89632 443.1 -0.0526223 448.585 0.217065 454.189C0.486752 459.793 2.95336 465.066 7.08264 468.864C22.7242 482.891 42.9905 490.654 64 490.667C87.8902 490.46 110.793 481.108 128 464.534C145.091 481.284 168.069 490.667 192 490.667C215.931 490.667 238.909 481.284 256 464.534C273.091 481.284 296.069 490.667 320 490.667C343.931 490.667 366.909 481.284 384 464.534C401.202 481.115 424.108 490.469 448 490.667C469.019 490.686 489.299 482.91 504.917 468.843C507.102 467 508.894 464.738 510.188 462.19C511.481 459.641 512.249 456.859 512.447 454.008C512.644 451.157 512.267 448.295 511.337 445.593C510.407 442.89 508.943 440.402 507.034 438.277C505.124 436.151 502.806 434.43 500.218 433.218C497.63 432.005 494.825 431.324 491.97 431.216C489.114 431.108 486.265 431.575 483.594 432.59C480.922 433.604 478.502 435.144 476.437 437.12ZM64 384C87.8902 383.793 110.793 374.441 128 357.867C145.091 374.618 168.069 384 192 384C215.931 384 238.909 374.618 256 357.867C273.091 374.618 296.069 384 320 384C343.931 384 366.909 374.618 384 357.867C401.202 374.449 424.108 383.802 448 384C469.019 384.02 489.299 376.244 504.917 362.176C507.102 360.334 508.894 358.071 510.188 355.523C511.481 352.974 512.249 350.192 512.447 347.341C512.644 344.49 512.267 341.628 511.337 338.926C510.407 336.224 508.943 333.736 507.034 331.61C505.124 329.484 502.806 327.764 500.218 326.551C497.63 325.338 494.825 324.657 491.97 324.55C489.114 324.442 486.265 324.909 483.594 325.923C480.922 326.937 478.481 328.478 476.416 330.454C468.613 337.465 458.491 341.34 448 341.334C438.718 341.349 429.631 338.67 421.842 333.622C414.052 328.574 407.895 321.374 404.117 312.896C402.644 308.741 399.92 305.145 396.319 302.602C392.719 300.058 388.419 298.693 384.011 298.693C379.602 298.693 375.302 300.058 371.702 302.602C368.101 305.145 365.377 308.741 363.904 312.896C360.114 321.369 353.953 328.563 346.164 333.611C338.375 338.659 329.292 341.345 320.011 341.345C310.729 341.345 301.646 338.659 293.857 333.611C286.069 328.563 279.907 321.369 276.117 312.896C274.644 308.741 271.92 305.145 268.319 302.602C264.719 300.058 260.419 298.693 256.011 298.693C251.602 298.693 247.302 300.058 243.702 302.602C240.101 305.145 237.377 308.741 235.904 312.896C232.114 321.369 225.953 328.563 218.164 333.611C210.375 338.659 201.292 341.345 192.011 341.345C182.729 341.345 173.646 338.659 165.857 333.611C158.069 328.563 151.907 321.369 148.117 312.896C146.644 308.741 143.92 305.145 140.319 302.602C136.719 300.058 132.419 298.693 128.011 298.693C123.602 298.693 119.302 300.058 115.702 302.602C112.101 305.145 109.377 308.741 107.904 312.896C104.12 321.374 97.9586 328.573 90.166 333.621C82.3735 338.668 73.2843 341.347 64 341.334C53.5026 341.322 43.3779 337.44 35.5626 330.432C31.3376 326.74 25.8282 324.862 20.2279 325.203C14.6276 325.544 9.38723 328.078 5.64177 332.256C1.89632 336.433 -0.0526223 341.918 0.217065 347.522C0.486752 353.127 2.95336 358.399 7.08264 362.198C22.7242 376.224 42.9905 383.987 64 384ZM394.667 170.667C405.215 170.667 415.526 167.539 424.297 161.679C433.068 155.818 439.904 147.489 443.94 137.743C447.977 127.998 449.033 117.274 446.975 106.929C444.917 96.583 439.838 87.0799 432.379 79.6211C424.92 72.1623 415.417 67.0828 405.071 65.025C394.726 62.9671 384.002 64.0233 374.257 68.0599C364.511 72.0966 356.182 78.9325 350.322 87.7031C344.461 96.4737 341.333 106.785 341.333 117.333C341.333 131.478 346.952 145.044 356.954 155.046C366.956 165.048 380.522 170.667 394.667 170.667Z" fill="black"/>
</g>
<defs>
<clipPath id="clip0_46_1259">
<rect width="512" height="512" fill="white"/>
</clipPath>
</defs>
</svg>
