<svg width="512" height="512" viewBox="0 0 512 512" fill="none" xmlns="http://www.w3.org/2000/svg">
<g clip-path="url(#clip0_46_1220)">
<path d="M192 256C262.592 256 320 198.592 320 128C320 57.408 262.592 0 192 0C121.408 0 64 57.408 64 128C64 198.592 121.408 256 192 256ZM192 213.333C144.939 213.333 106.667 175.061 106.667 128H277.333C277.333 175.061 239.061 213.333 192 213.333ZM192 42.6667C223.445 42.6667 250.667 59.9467 265.472 85.3333H118.528C133.333 59.9467 160.555 42.6667 192 42.6667ZM204.8 363.989L180.075 416C177.871 419.305 174.886 422.014 171.384 423.888C167.882 425.762 163.972 426.743 160 426.743C156.028 426.743 152.118 425.762 148.616 423.888C145.114 422.014 142.129 419.305 139.925 416L113.195 364.053C70.9333 390.464 42.6667 437.269 42.6667 490.667C42.6667 496.325 40.4191 501.751 36.4183 505.752C32.4175 509.752 26.9913 512 21.3333 512C15.6754 512 10.2492 509.752 6.24839 505.752C2.24761 501.751 0 496.325 0 490.667C0 384.811 86.144 298.667 192 298.667C197.658 298.667 203.084 300.914 207.085 304.915C211.086 308.916 213.333 314.342 213.333 320L212.949 330.709C212.544 342.251 209.77 353.565 204.8 363.989ZM341.333 213.333C341.205 207.651 342.213 202.001 344.298 196.714C346.383 191.427 349.504 186.61 353.476 182.546C357.449 178.481 362.193 175.251 367.431 173.046C372.669 170.84 378.295 169.703 383.978 169.702C389.662 169.701 395.288 170.835 400.527 173.038C405.766 175.241 410.512 178.468 414.487 182.53C418.462 186.593 421.584 191.408 423.672 196.694C425.76 201.98 426.771 207.63 426.645 213.312C426.399 224.46 421.798 235.068 413.827 242.867C405.857 250.665 395.15 255.033 384 255.035C372.849 255.038 362.14 250.676 354.166 242.881C346.192 235.087 341.585 224.481 341.333 213.333ZM465.045 401.024C433.813 432.256 398.421 448.128 364.821 448.128C363.008 447.765 284.843 448.128 282.795 448L216.853 506.624C212.587 510.114 207.136 511.82 201.642 511.383C196.147 510.947 191.034 508.403 187.372 504.284C183.709 500.164 181.782 494.788 181.993 489.28C182.203 483.772 184.535 478.559 188.501 474.731L256.021 414.72V343.125C254.72 308.373 270.507 271.424 302.976 238.976L303.019 238.933C307.48 253.186 315.618 266.011 326.613 276.117C299.029 307.328 283.968 350.379 318.805 385.216C332.757 399.168 347.691 404.843 363.136 405.44C389.035 406.123 415.04 390.72 434.901 370.88C464.683 341.077 484.395 297.429 454.784 261.056C463.821 247.565 468.796 231.765 469.12 215.531C472.64 218.347 476.075 221.333 479.381 224.661C527.829 273.131 522.091 344.021 465.045 401.067V401.024Z" fill="black"/>
</g>
<defs>
<clipPath id="clip0_46_1220">
<rect width="512" height="512" fill="white"/>
</clipPath>
</defs>
</svg>
