<svg width="512" height="512" viewBox="0 0 512 512" fill="none" xmlns="http://www.w3.org/2000/svg">
<g clip-path="url(#clip0_46_1251)">
<path d="M192 53.3333C192 39.1885 197.619 25.6229 207.621 15.621C217.623 5.61903 231.189 0 245.333 0C259.478 0 273.044 5.61903 283.046 15.621C293.048 25.6229 298.667 39.1885 298.667 53.3333C298.667 67.4782 293.048 81.0438 283.046 91.0457C273.044 101.048 259.478 106.667 245.333 106.667C231.189 106.667 217.623 101.048 207.621 91.0457C197.619 81.0438 192 67.4782 192 53.3333ZM490.539 125.653C491.162 131.274 489.528 136.912 485.995 141.329C482.463 145.745 477.322 148.578 471.701 149.205L298.688 168.427V400.213C298.688 415.488 293.224 430.258 283.285 441.856L229.547 504.533C227.734 506.694 225.51 508.474 223.004 509.77C220.498 511.066 217.76 511.852 214.949 512.083C212.137 512.314 209.308 511.985 206.624 511.115C203.941 510.244 201.456 508.851 199.315 507.014C197.174 505.178 195.418 502.935 194.149 500.415C192.881 497.895 192.125 495.149 191.924 492.335C191.724 489.521 192.084 486.695 192.983 484.021C193.882 481.348 195.303 478.879 197.163 476.757L250.901 414.08C254.208 410.219 256.043 405.291 256.043 400.213V341.333H231.445C230.763 342.485 230.293 343.744 229.397 344.747L183.211 397.312C176.171 405.312 167.211 411.456 157.227 415.125L71.3815 446.677C66.1073 448.476 60.3389 448.139 55.3097 445.74C50.2806 443.34 46.3899 439.068 44.4697 433.837C42.5495 428.606 42.7523 422.831 45.0346 417.748C47.317 412.664 51.4977 408.676 56.6828 406.635L142.507 375.083C145.841 373.844 148.817 371.799 151.168 369.131L192.043 322.603V165.845L88.7468 121.493C73.0881 113.707 64.0428 99.072 64.0428 82.816V21.3333C64.0428 15.6754 66.2904 10.2492 70.2912 6.24839C74.292 2.24761 79.7182 0 85.3761 0C91.0341 0 96.4603 2.24761 100.461 6.24839C104.462 10.2492 106.709 15.6754 106.709 21.3333V82.816L212.032 128H276.203L467.029 106.795C469.815 106.472 472.637 106.704 475.332 107.478C478.027 108.252 480.543 109.552 482.733 111.303C484.922 113.055 486.744 115.223 488.091 117.682C489.438 120.142 490.284 122.844 490.581 125.632L490.539 125.653ZM448 85.3333C453.682 85.4618 459.332 84.4539 464.619 82.3686C469.906 80.2834 474.723 77.1629 478.788 73.1903C482.852 69.2178 486.082 64.4733 488.288 59.2353C490.493 53.9974 491.63 48.3716 491.631 42.6882C491.633 37.0049 490.499 31.3785 488.296 26.1395C486.093 20.9004 482.865 16.1543 478.803 12.1797C474.741 8.20517 469.925 5.08226 464.639 2.99437C459.353 0.906481 453.703 -0.104314 448.021 0.0213333C436.873 0.267852 426.265 4.86879 418.467 12.8392C410.669 20.8097 406.301 31.5162 406.298 42.6669C406.295 53.8176 410.658 64.5263 418.452 72.5007C426.246 80.475 436.852 85.0812 448 85.3333Z" fill="black"/>
</g>
<defs>
<clipPath id="clip0_46_1251">
<rect width="512" height="512" fill="white"/>
</clipPath>
</defs>
</svg>
