<svg width="512" height="512" viewBox="0 0 512 512" fill="none" xmlns="http://www.w3.org/2000/svg">
<g clip-path="url(#clip0_46_1256)">
<path d="M190.869 64C190.869 28.6507 220.032 0 256.021 0C292.011 0 318.869 28.6507 318.869 64C318.869 99.3493 291.989 128 256.021 128C220.053 128 190.869 99.3493 190.869 64ZM502.336 334.144L421.013 280.96L393.109 235.52C380.871 215.756 363.805 199.431 343.517 188.082C323.23 176.732 300.388 170.732 277.141 170.645H238.101C213.862 170.656 190.065 177.135 169.165 189.413C148.266 201.691 131.021 219.323 119.211 240.491L90.6028 291.861L9.66412 344.811C5.02016 347.945 1.79581 352.781 0.68763 358.273C-0.420547 363.766 0.676419 369.473 3.74154 374.163C6.80667 378.854 11.5939 382.15 17.069 383.339C22.5441 384.529 28.2675 383.518 33.0028 380.523L118.336 324.736C121.228 322.85 123.615 320.287 125.291 317.269L156.459 261.291C160.384 254.229 165.205 247.872 170.645 242.197V391.787L61.2055 443.285C46.5068 451.691 39.5521 468.309 43.9041 484.651C48.2561 500.992 62.5281 512 79.4668 512H149.312C154.97 512 160.396 509.752 164.397 505.752C168.398 501.751 170.645 496.325 170.645 490.667C170.645 485.009 168.398 479.582 164.397 475.582C160.396 471.581 154.97 469.333 149.312 469.333H105.92L201.045 424.64C204.712 422.918 207.813 420.189 209.985 416.77C212.157 413.351 213.311 409.384 213.312 405.333V216.683C221.38 214.457 229.711 213.33 238.08 213.333H277.12C284.437 213.333 291.648 214.315 298.645 216V405.333C298.646 409.384 299.8 413.351 301.973 416.77C304.145 420.189 307.246 422.918 310.912 424.64L406.165 469.333H234.667C229.009 469.333 223.583 471.581 219.582 475.582C215.581 479.582 213.333 485.009 213.333 490.667C213.333 496.325 215.581 501.751 219.582 505.752C223.583 509.752 229.009 512 234.667 512H432.512C449.429 512 463.723 501.013 468.075 484.651C472.427 468.288 465.472 451.669 449.259 442.475L341.333 391.765V238.976C347.221 244.523 352.448 250.837 356.757 257.856L387.157 307.371C388.802 310.053 391.025 312.335 393.664 314.048L478.997 369.835C483.733 372.83 489.456 373.841 494.931 372.652C500.406 371.462 505.194 368.166 508.259 363.475C511.324 358.785 512.421 353.078 511.313 347.585C510.204 342.093 506.98 337.257 502.336 334.123V334.144Z" fill="black"/>
</g>
<defs>
<clipPath id="clip0_46_1256">
<rect width="512" height="512" fill="white"/>
</clipPath>
</defs>
</svg>
