<svg width="512" height="512" viewBox="0 0 512 512" fill="none" xmlns="http://www.w3.org/2000/svg">
    <path d="M192 234.667C192 229.009 194.248 223.583 198.248 219.582C202.249 215.581 207.675 213.333 213.333 213.333H298.667C304.325 213.333 309.751 215.581 313.752 219.582C317.752 223.583 320 229.009 320 234.667C320 240.325 317.752 245.751 313.752 249.752C309.751 253.752 304.325 256 298.667 256H213.333C207.675 256 202.249 253.752 198.248 249.752C194.248 245.751 192 240.325 192 234.667ZM512 384V405.333C511.966 433.613 500.717 460.724 480.721 480.721C460.724 500.717 433.613 511.966 405.333 512H106.667C78.3873 511.966 51.2759 500.717 31.2794 480.721C11.2828 460.724 0.0338743 433.613 0 405.333L0 384C0.0310299 359.42 8.53525 335.601 24.0793 316.56C39.6234 297.519 61.2568 284.418 85.3333 279.467V256C85.3702 226.015 93.3066 196.568 108.343 170.626C123.38 144.683 144.986 123.16 170.987 108.224C170.944 107.691 170.667 107.221 170.667 106.667V85.3333C170.667 62.7015 179.657 40.9967 195.66 24.9936C211.663 8.99045 233.368 0 256 0C278.632 0 300.337 8.99045 316.34 24.9936C332.343 40.9967 341.333 62.7015 341.333 85.3333V106.667C341.333 107.221 341.056 107.691 341.013 108.224C367.014 123.16 388.62 144.683 403.657 170.626C418.693 196.568 426.63 226.015 426.667 256V279.467C450.743 284.418 472.377 297.519 487.921 316.56C503.465 335.601 511.969 359.42 512 384ZM213.333 90.944C241.286 83.4631 270.714 83.4631 298.667 90.944V85.3333C298.667 74.0174 294.171 63.165 286.17 55.1634C278.168 47.1619 267.316 42.6667 256 42.6667C244.684 42.6667 233.832 47.1619 225.83 55.1634C217.829 63.165 213.333 74.0174 213.333 85.3333V90.944ZM128 352.747C144.637 335.633 164.537 322.03 186.522 312.741C208.508 303.452 232.133 298.666 256 298.666C279.867 298.666 303.492 303.452 325.478 312.741C347.464 322.03 367.363 335.633 384 352.747V256C384 222.052 370.514 189.495 346.51 165.49C322.505 141.486 289.948 128 256 128C222.052 128 189.495 141.486 165.49 165.49C141.486 189.495 128 222.052 128 256V352.747ZM106.667 469.333H107.221C93.1028 450.978 85.4118 428.49 85.3333 405.333V323.925C72.898 328.322 62.1246 336.453 54.4872 347.206C46.8498 357.96 42.7213 370.81 42.6667 384V405.333C42.6667 422.307 49.4095 438.586 61.4118 450.588C73.4142 462.591 89.6928 469.333 106.667 469.333ZM320 469.333C333.903 469.268 347.406 464.678 358.468 456.256C369.53 447.835 377.549 436.04 381.312 422.656C370.512 398.446 352.929 377.883 330.691 363.452C308.452 349.022 282.51 341.343 256 341.343C229.49 341.343 203.548 349.022 181.309 363.452C159.071 377.883 141.488 398.446 130.688 422.656C134.451 436.04 142.47 447.835 153.532 456.256C164.594 464.678 178.097 469.268 192 469.333H320ZM469.333 384C469.279 370.81 465.15 357.96 457.513 347.206C449.875 336.453 439.102 328.322 426.667 323.925V405.333C426.588 428.49 418.897 450.978 404.779 469.333H405.333C422.307 469.333 438.586 462.591 450.588 450.588C462.591 438.586 469.333 422.307 469.333 405.333V384Z" fill="black"/>
</svg>
