<svg overflow="visible" style="display: block;" viewBox="0 0 16 16" fill="none" xmlns="http://www.w3.org/2000/svg">
<g id="Group">
<path id="Vector" d="M5.33333 8H4C3.26467 8 2.66667 8.598 2.66667 9.33333V10.6667C2.66667 11.402 3.26467 12 4 12H5.33333C6.06867 12 6.66667 11.402 6.66667 10.6667V9.33333C6.66667 8.598 6.06867 8 5.33333 8ZM4 10.6667V9.33333H5.33333V10.6667H4ZM12.6667 1.33333H12V0.666667C12 0.489856 11.9298 0.320286 11.8047 0.195262C11.6797 0.0702379 11.5101 0 11.3333 0C11.1565 0 10.987 0.0702379 10.8619 0.195262C10.7369 0.320286 10.6667 0.489856 10.6667 0.666667V1.33333H5.33333V0.666667C5.33333 0.489856 5.2631 0.320286 5.13807 0.195262C5.01305 0.0702379 4.84348 0 4.66667 0C4.48986 0 4.32029 0.0702379 4.19526 0.195262C4.07024 0.320286 4 0.489856 4 0.666667V1.33333H3.33333C1.49533 1.33333 0 2.82867 0 4.66667V12.6667C0 14.5047 1.49533 16 3.33333 16H12.6667C14.5047 16 16 14.5047 16 12.6667V4.66667C16 2.82867 14.5047 1.33333 12.6667 1.33333ZM3.33333 2.66667H12.6667C13.7693 2.66667 14.6667 3.564 14.6667 4.66667V5.33333H1.33333V4.66667C1.33333 3.564 2.23067 2.66667 3.33333 2.66667ZM12.6667 14.6667H3.33333C2.23067 14.6667 1.33333 13.7693 1.33333 12.6667V6.66667H14.6667V12.6667C14.6667 13.7693 13.7693 14.6667 12.6667 14.6667Z" fill="var(--fill-0, #C6C5CA)"/>
</g>
</svg>
