<svg width="16" height="16" viewBox="0 0 16 16" fill="none" xmlns="http://www.w3.org/2000/svg">
    <g clip-path="url(#clip0_534_1611)">
        <path d="M8 0C12.4113 0 16 3.58867 16 8C16 12.4113 12.4113 16 8 16H0V8C0 3.58867 3.58867 0 8 0ZM1.33333 14.6667H8C11.676 14.6667 14.6667 11.676 14.6667 8C14.6667 4.324 11.676 1.33333 8 1.33333C4.324 1.33333 1.33333 4.324 1.33333 8V14.6667ZM7 8C7.00004 8.13137 7.02596 8.26144 7.07627 8.38279C7.12659 8.50414 7.20031 8.61439 7.29323 8.70724C7.38615 8.8001 7.49645 8.87375 7.61783 8.92398C7.73921 8.97421 7.8693 9.00004 8.00067 9C8.13203 8.99996 8.2621 8.97404 8.38345 8.92373C8.5048 8.87342 8.61505 8.79969 8.70791 8.70677C8.89545 8.51911 9.00076 8.26464 9.00067 7.99933C9.00058 7.73403 8.8951 7.47962 8.70744 7.29209C8.51978 7.10455 8.2653 6.99924 8 6.99933C7.7347 6.99942 7.48029 7.1049 7.29276 7.29256C7.10522 7.48022 6.99991 7.7347 7 8ZM3.66667 8C3.66671 8.13137 3.69263 8.26144 3.74294 8.38279C3.79325 8.50414 3.86697 8.61439 3.95989 8.70724C4.05281 8.8001 4.16311 8.87375 4.2845 8.92398C4.40588 8.97421 4.53597 9.00004 4.66733 9C4.7987 8.99996 4.92877 8.97404 5.05012 8.92373C5.17147 8.87342 5.28172 8.79969 5.37458 8.70677C5.46744 8.61385 5.54108 8.50355 5.59132 8.38217C5.64155 8.26079 5.66738 8.1307 5.66733 7.99933C5.66725 7.73403 5.56177 7.47962 5.37411 7.29209C5.18645 7.10455 4.93197 6.99924 4.66667 6.99933C4.40136 6.99942 4.14696 7.1049 3.95942 7.29256C3.77189 7.48022 3.66658 7.7347 3.66667 8ZM10.3333 8C10.3334 8.13137 10.3593 8.26144 10.4096 8.38279C10.4599 8.50414 10.5336 8.61439 10.6266 8.70724C10.7195 8.8001 10.8298 8.87375 10.9512 8.92398C11.0725 8.97421 11.2026 9.00004 11.334 9C11.4654 8.99996 11.5954 8.97404 11.7168 8.92373C11.8381 8.87342 11.9484 8.79969 12.0412 8.70677C12.2288 8.51911 12.3341 8.26464 12.334 7.99933C12.3339 7.73403 12.2284 7.47962 12.0408 7.29209C11.8531 7.10455 11.5986 6.99924 11.3333 6.99933C11.068 6.99942 10.8136 7.1049 10.6261 7.29256C10.4386 7.48022 10.3332 7.7347 10.3333 8Z" fill="white"/>
    </g>
    <defs>
        <clipPath id="clipcl0_534_1611">
            <rect width="16" height="16" fill="white"/>
        </clipPath>
    </defs>
</svg>
