<svg overflow="visible" style="display: block;" viewBox="0 0 16 16" fill="none" xmlns="http://www.w3.org/2000/svg">
<g id="Group">
<path id="Vector" d="M8 16C3.58867 16 0 12.4113 0 8C0 3.58867 3.58867 0 8 0C12.4113 0 16 3.58867 16 8C16 12.4113 12.4113 16 8 16ZM8 1.33333C4.324 1.33333 1.33333 4.324 1.33333 8C1.33333 11.676 4.324 14.6667 8 14.6667C11.676 14.6667 14.6667 11.676 14.6667 8C14.6667 4.324 11.676 1.33333 8 1.33333ZM9.66667 10.8867C9.74255 10.843 9.80906 10.7847 9.8624 10.7153C9.91575 10.6458 9.95487 10.5665 9.97753 10.4819C10.0002 10.3974 10.006 10.3091 9.99448 10.2223C9.98301 10.1355 9.95453 10.0518 9.91067 9.976L8.66667 7.82133V4C8.66667 3.82319 8.59643 3.65362 8.4714 3.5286C8.34638 3.40357 8.17681 3.33333 8 3.33333C7.82319 3.33333 7.65362 3.40357 7.5286 3.5286C7.40357 3.65362 7.33333 3.82319 7.33333 4V8C7.33333 8.11733 7.364 8.232 7.42267 8.33333L8.756 10.6427C8.84441 10.7958 8.99002 10.9075 9.1608 10.9533C9.33158 10.999 9.51355 10.9751 9.66667 10.8867Z" fill="var(--fill-0, #4F5152)"/>
</g>
</svg>
