<svg overflow="visible" style="display: block;" viewBox="0 0 16 16" fill="none" xmlns="http://www.w3.org/2000/svg">
<g id="med">
<g id="Vector">
<path fill-rule="evenodd" clip-rule="evenodd" d="M3.11401 8.94849C2.82685 8.66132 2.43736 8.5 2.03125 8.5C1.62514 8.5 1.23565 8.66132 0.948486 8.94849C0.661321 9.23565 0.5 9.62514 0.5 10.0312V14.0312C0.5 14.4374 0.661322 14.8268 0.948486 15.114C1.23565 15.4012 1.62514 15.5625 2.03125 15.5625C2.43736 15.5625 2.82685 15.4012 3.11401 15.114C3.40118 14.8268 3.5625 14.4374 3.5625 14.0312V10.0312C3.5625 9.62514 3.40118 9.23565 3.11401 8.94849ZM9.11401 4.94849C8.82685 4.66132 8.43736 4.5 8.03125 4.5C7.62514 4.5 7.23565 4.66132 6.94849 4.94849C6.66132 5.23565 6.5 5.62514 6.5 6.03125V14.0312C6.5 14.4374 6.66132 14.8268 6.94849 15.114C7.23565 15.4012 7.62514 15.5625 8.03125 15.5625C8.43736 15.5625 8.82685 15.4012 9.11401 15.114C9.40118 14.8268 9.5625 14.4374 9.5625 14.0312V6.03125C9.5625 5.62514 9.40118 5.23565 9.11401 4.94849Z" fill="var(--fill-0, #FE4343)"/>
<path d="M14.0312 0.5C14.4374 0.5 14.8268 0.661322 15.114 0.948486C15.4012 1.23565 15.5625 1.62514 15.5625 2.03125V14.0312C15.5625 14.4374 15.4012 14.8268 15.114 15.114C14.8268 15.4012 14.4374 15.5625 14.0312 15.5625C13.6251 15.5625 13.2357 15.4012 12.9485 15.114C12.6613 14.8268 12.5 14.4374 12.5 14.0312V2.03125C12.5 1.62514 12.6613 1.23565 12.9485 0.948486C13.2357 0.661321 13.6251 0.5 14.0312 0.5Z" fill="#FE4343"/>
</g>
</g>
</svg>
