<svg overflow="visible" style="display: block;" viewBox="0 0 15.0625 15.0625" fill="none" xmlns="http://www.w3.org/2000/svg">
<g id="Vector">
<path d="M13.5312 0C13.9374 0 14.3268 0.161322 14.614 0.448486C14.9012 0.735651 15.0625 1.12514 15.0625 1.53125V13.5312C15.0625 13.9374 14.9012 14.3268 14.614 14.614C14.3268 14.9012 13.9374 15.0625 13.5312 15.0625C13.1251 15.0625 12.7357 14.9012 12.4485 14.614C12.1613 14.3268 12 13.9374 12 13.5312V1.53125C12 1.12514 12.1613 0.735651 12.4485 0.448486C12.7357 0.161321 13.1251 1.105e-07 13.5312 0Z" fill="#DEE4E6"/>
<path fill-rule="evenodd" clip-rule="evenodd" d="M7.53125 4C7.93736 4 8.32685 4.16132 8.61401 4.44849C8.90118 4.73565 9.0625 5.12514 9.0625 5.53125V13.5312C9.0625 13.9374 8.90118 14.3268 8.61401 14.614C8.32685 14.9012 7.93736 15.0625 7.53125 15.0625C7.12514 15.0625 6.73565 14.9012 6.44849 14.614C6.16132 14.3268 6 13.9374 6 13.5312V5.53125C6 5.12514 6.16132 4.73565 6.44849 4.44849C6.73565 4.16132 7.12514 4 7.53125 4Z" fill="var(--fill-0, #DEE4E6)"/>
<path d="M1.53125 8C1.93736 8 2.32685 8.16132 2.61401 8.44849C2.90118 8.73565 3.0625 9.12514 3.0625 9.53125V13.5312C3.0625 13.9374 2.90118 14.3268 2.61401 14.614C2.32685 14.9012 1.93736 15.0625 1.53125 15.0625C1.12514 15.0625 0.735651 14.9012 0.448486 14.614C0.161322 14.3268 0 13.9374 0 13.5312V9.53125C7.89265e-08 9.12514 0.161321 8.73565 0.448486 8.44849C0.735651 8.16132 1.12514 8 1.53125 8Z" fill="#D3F783"/>
</g>
</svg>
