<svg xmlns="http://www.w3.org/2000/svg" width="16" height="16" viewBox="0 0 16 16" fill="none">
  <path d="M11.333 2.00004C11.5081 1.82494 11.7169 1.68605 11.9471 1.59129C12.1773 1.49653 12.4244 1.44775 12.6739 1.44775C12.9235 1.44775 13.1706 1.49653 13.4007 1.59129C13.6309 1.68605 13.8398 1.82494 14.0148 2.00004C14.1899 2.17513 14.3288 2.384 14.4235 2.61416C14.5183 2.84432 14.5671 3.09145 14.5671 3.34104C14.5671 3.59063 14.5183 3.83776 14.4235 4.06792C14.3288 4.29808 14.1899 4.50695 14.0148 4.68204L4.99996 13.697L1.33331 14.667L2.30331 11.0003L11.333 2.00004Z" stroke="currentColor" stroke-width="1.5" stroke-linecap="round" stroke-linejoin="round"/>
</svg>
