<svg overflow="visible" style="display: block;" viewBox="0 0 20 20.0004" fill="none" xmlns="http://www.w3.org/2000/svg">
<g id="Group">
<path id="Vector" d="M0.833333 3.95855H3.11333C3.2922 4.61666 3.68264 5.19763 4.22444 5.61183C4.76623 6.02602 5.42927 6.25043 6.11125 6.25043C6.79323 6.25043 7.45627 6.02602 7.99806 5.61183C8.53986 5.19763 8.9303 4.61666 9.10917 3.95855H19.1667C19.3877 3.95855 19.5996 3.87075 19.7559 3.71447C19.9122 3.55819 20 3.34623 20 3.12522C20 2.9042 19.9122 2.69224 19.7559 2.53596C19.5996 2.37968 19.3877 2.29188 19.1667 2.29188H9.10917C8.9303 1.63377 8.53986 1.0528 7.99806 0.638607C7.45627 0.224409 6.79323 0 6.11125 0C5.42927 0 4.76623 0.224409 4.22444 0.638607C3.68264 1.0528 3.2922 1.63377 3.11333 2.29188H0.833333C0.61232 2.29188 0.400358 2.37968 0.244078 2.53596C0.0877974 2.69224 0 2.9042 0 3.12522C0 3.34623 0.0877974 3.55819 0.244078 3.71447C0.400358 3.87075 0.61232 3.95855 0.833333 3.95855ZM6.11083 1.66688C6.39926 1.66688 6.68122 1.75241 6.92104 1.91266C7.16086 2.0729 7.34778 2.30066 7.45816 2.56714C7.56854 2.83361 7.59742 3.12683 7.54115 3.40972C7.48488 3.69261 7.34598 3.95246 7.14203 4.15641C6.93808 4.36037 6.67823 4.49926 6.39534 4.55553C6.11245 4.6118 5.81923 4.58292 5.55275 4.47254C5.28628 4.36216 5.05852 4.17524 4.89827 3.93542C4.73803 3.6956 4.6525 3.41365 4.6525 3.12522C4.65294 2.73858 4.80673 2.3679 5.08012 2.09451C5.35352 1.82111 5.72419 1.66732 6.11083 1.66688ZM19.1667 9.16688H16.8867C16.7081 8.50862 16.3178 7.92744 15.7761 7.51307C15.2343 7.0987 14.5712 6.87419 13.8892 6.87419C13.2071 6.87419 12.544 7.0987 12.0023 7.51307C11.4605 7.92744 11.0702 8.50862 10.8917 9.16688H0.833333C0.61232 9.16688 0.400358 9.25468 0.244078 9.41096C0.0877974 9.56724 0 9.7792 0 10.0002C0 10.2212 0.0877974 10.4332 0.244078 10.5895C0.400358 10.7458 0.61232 10.8335 0.833333 10.8335H10.8917C11.0702 11.4918 11.4605 12.073 12.0023 12.4874C12.544 12.9017 13.2071 13.1262 13.8892 13.1262C14.5712 13.1262 15.2343 12.9017 15.7761 12.4874C16.3178 12.073 16.7081 11.4918 16.8867 10.8335H19.1667C19.3877 10.8335 19.5996 10.7458 19.7559 10.5895C19.9122 10.4332 20 10.2212 20 10.0002C20 9.7792 19.9122 9.56724 19.7559 9.41096C19.5996 9.25468 19.3877 9.16688 19.1667 9.16688ZM13.8892 11.4586C13.6007 11.4586 13.3188 11.373 13.079 11.2128C12.8391 11.0525 12.6522 10.8248 12.5418 10.5583C12.4315 10.2918 12.4026 9.9986 12.4589 9.71571C12.5151 9.43282 12.654 9.17297 12.858 8.96902C13.0619 8.76507 13.3218 8.62617 13.6047 8.5699C13.8875 8.51363 14.1808 8.54251 14.4472 8.65289C14.7137 8.76327 14.9415 8.95019 15.1017 9.19001C15.262 9.42983 15.3475 9.71179 15.3475 10.0002C15.3471 10.3869 15.1933 10.7575 14.9199 11.0309C14.6465 11.3043 14.2758 11.4581 13.8892 11.4586ZM19.1667 16.0419H9.10917C8.9303 15.3838 8.53986 14.8028 7.99806 14.3886C7.45627 13.9744 6.79323 13.75 6.11125 13.75C5.42927 13.75 4.76623 13.9744 4.22444 14.3886C3.68264 14.8028 3.2922 15.3838 3.11333 16.0419H0.833333C0.61232 16.0419 0.400358 16.1297 0.244078 16.286C0.0877974 16.4422 0 16.6542 0 16.8752C0 17.0962 0.0877974 17.3082 0.244078 17.4645C0.400358 17.6208 0.61232 17.7086 0.833333 17.7086H3.11333C3.2922 18.3667 3.68264 18.9476 4.22444 19.3618C4.76623 19.776 5.42927 20.0004 6.11125 20.0004C6.79323 20.0004 7.45627 19.776 7.99806 19.3618C8.53986 18.9476 8.9303 18.3667 9.10917 17.7086H19.1667C19.3877 17.7086 19.5996 17.6208 19.7559 17.4645C19.9122 17.3082 20 17.0962 20 16.8752C20 16.6542 19.9122 16.4422 19.7559 16.286C19.5996 16.1297 19.3877 16.0419 19.1667 16.0419ZM6.11083 18.3336C5.8224 18.3336 5.54045 18.248 5.30063 18.0878C5.0608 17.9275 4.87389 17.6998 4.76351 17.4333C4.65313 17.1668 4.62425 16.8736 4.68052 16.5907C4.73679 16.3078 4.87568 16.048 5.07964 15.844C5.28359 15.6401 5.54344 15.5012 5.82633 15.4449C6.10922 15.3886 6.40244 15.4175 6.66891 15.5279C6.93539 15.6383 7.16315 15.8252 7.32339 16.065C7.48364 16.3048 7.56917 16.5868 7.56917 16.8752C7.56851 17.2618 7.41465 17.6323 7.1413 17.9057C6.86795 18.179 6.4974 18.3329 6.11083 18.3336Z" fill="var(--fill-0, #777583)"/>
</g>
</svg>
