<svg overflow="visible" style="display: block;" viewBox="0 0 15.9528 16.0097" fill="none" xmlns="http://www.w3.org/2000/svg">
<path id="Vector" d="M7.90696 1.66667C7.90696 1.22464 8.08255 0.800716 8.39511 0.488155C8.70767 0.175595 9.1316 0 9.57362 0C10.0157 0 10.4396 0.175595 10.7521 0.488155C11.0647 0.800716 11.2403 1.22464 11.2403 1.66667C11.2403 2.10869 11.0647 2.53262 10.7521 2.84518C10.4396 3.15774 10.0157 3.33333 9.57362 3.33333C9.1316 3.33333 8.70767 3.15774 8.39511 2.84518C8.08255 2.53262 7.90696 2.10869 7.90696 1.66667ZM14.6496 13.3333C14.4721 13.3293 14.2955 13.3608 14.1303 13.426C13.9651 13.4911 13.8145 13.5887 13.6875 13.7128C13.5605 13.8369 13.4596 13.9852 13.3906 14.1489C13.3217 14.3126 13.2862 14.4884 13.2861 14.666C13.2861 14.8436 13.3215 15.0194 13.3904 15.1831C13.4592 15.3469 13.5601 15.4952 13.687 15.6194C13.814 15.7436 13.9645 15.8412 14.1297 15.9064C14.2948 15.9717 14.4714 16.0033 14.649 15.9993C14.9973 15.9916 15.3288 15.8479 15.5725 15.5988C15.8162 15.3497 15.9527 15.0151 15.9528 14.6667C15.9529 14.3182 15.8166 13.9836 15.573 13.7344C15.3294 13.4852 14.998 13.3412 14.6496 13.3333ZM11.9356 15.086C11.9697 15.1676 11.9872 15.2552 11.9872 15.3436C11.9871 15.432 11.9694 15.5195 11.9352 15.6011C11.901 15.6826 11.8509 15.7565 11.7878 15.8185C11.7248 15.8805 11.65 15.9293 11.5679 15.9621C11.4858 15.9949 11.3979 16.0111 11.3095 16.0096C11.2211 16.0082 11.1339 15.9891 11.0529 15.9536C10.9719 15.9181 10.8988 15.8669 10.8378 15.8028C10.7768 15.7388 10.7291 15.6633 10.6976 15.5807L9.63696 12.928C9.5033 12.5939 9.28196 12.3021 8.99629 12.0833L6.18429 9.93067C5.41162 9.44467 5.08296 8.41467 5.45162 7.51533L6.85229 4.69933L4.94896 3.78067C4.4669 3.54749 4.04783 3.20204 3.72696 2.77333L2.44896 1.066C2.34314 0.924286 2.29794 0.746339 2.32332 0.571305C2.3487 0.396271 2.44258 0.238488 2.58429 0.132667C2.726 0.0268453 2.90395 -0.0183463 3.07899 0.00703367C3.25402 0.0324136 3.4118 0.126286 3.51762 0.268L4.79429 1.976C4.98629 2.23267 5.23962 2.44133 5.52762 2.58067L14.9403 7.122C15.0207 7.15907 15.0929 7.21177 15.1527 7.27705C15.2125 7.34233 15.2587 7.41886 15.2887 7.50219C15.3186 7.58552 15.3316 7.67397 15.3269 7.76239C15.3223 7.8508 15.3001 7.9374 15.2616 8.01714C15.2231 8.09688 15.1692 8.16816 15.1028 8.22681C15.0365 8.28546 14.9592 8.33032 14.8754 8.35876C14.7915 8.3872 14.7028 8.39866 14.6145 8.39246C14.5262 8.38626 14.44 8.36254 14.361 8.32267L9.87096 6.156L8.14562 9.75467L9.80629 11.024C10.2831 11.3887 10.6525 11.8754 10.8756 12.4327L11.9363 15.0853L11.9356 15.086ZM4.52829 10.1167L3.20162 11.142L1.04762 9.48267C0.90511 9.38424 0.729936 9.34501 0.559054 9.37326C0.388172 9.40151 0.234943 9.49502 0.131687 9.63408C0.028432 9.77314 -0.0167757 9.94686 0.00560031 10.1186C0.0279763 10.2904 0.116187 10.4467 0.251624 10.5547L2.39496 12.2113C2.62781 12.3845 2.91079 12.477 3.20097 12.4749C3.49115 12.4727 3.77271 12.376 4.00296 12.1993L5.47562 11.0687C5.10195 10.815 4.78037 10.4914 4.52829 10.1167Z" fill="var(--fill-0, white)"/>
</svg>
