<svg overflow="visible" style="display: block;" viewBox="0 0 16.0067 16.0153" fill="none" xmlns="http://www.w3.org/2000/svg">
<g id="Group">
<path id="Vector" d="M16 1.34933C16 2.41267 14.7534 3.828 13.9654 4.46C13.7864 4.60421 13.5635 4.68285 13.3337 4.68285C13.1039 4.68285 12.881 4.60421 12.702 4.46C11.9133 3.828 10.6673 2.41267 10.6673 1.34933C10.6673 0.995711 10.8078 0.656573 11.0579 0.406524C11.3079 0.156476 11.6471 0.016 12.0007 0.016C12.3543 0.016 12.6934 0.156476 12.9435 0.406524C13.1935 0.656573 13.334 0.995711 13.334 1.34933C13.334 0.995711 13.4745 0.656573 13.7245 0.406524C13.9746 0.156476 14.3137 0.016 14.6673 0.016C15.021 0.016 15.3601 0.156476 15.6102 0.406524C15.8602 0.656573 16 0.995711 16 1.34933ZM16.006 8.69667C16.006 7.668 15.2287 6.79467 14.204 6.706C13.9287 6.682 13.6374 6.66733 13.3394 6.66733C12.496 6.66733 11.712 7.13467 11.1233 7.61733C11.688 8.00133 12.042 8.36533 12.074 8.398C12.1973 8.52469 12.2653 8.69517 12.2629 8.87196C12.2605 9.04874 12.188 9.21734 12.0613 9.34067C11.9347 9.46399 11.7642 9.53194 11.5874 9.52957C11.4106 9.52719 11.242 9.45469 11.1187 9.328C11.0887 9.29867 9.74135 7.986 8.33935 8.016C6.12202 8.06533 4.56868 9.76067 4.21868 10.184C5.11068 7.83333 4.42535 4.48667 4.79268 3.44867L6.22402 3.016C6.34431 3.00973 6.45769 2.95783 6.54105 2.87087C6.62442 2.78392 6.67149 2.66845 6.67268 2.548L6.68535 2.192L7.63135 1.848C7.93402 1.72733 8.09002 1.37933 7.95935 1.08133C7.71602 0.525333 7.03535 0 6.00602 0C5.00602 0 4.19668 0.714667 4.19668 0.714667C0.280682 3.72667 0.00268202 9.11267 1.5356e-05 11.5133C-0.00120259 11.8693 0.0700413 12.2218 0.209409 12.5494C0.348777 12.8769 0.553353 13.1727 0.810682 13.4187C1.89335 14.4533 4.73668 16.0153 8.00668 16.0153C11.122 16.0153 13.516 15.1647 14.842 14.5473C15.1894 14.387 15.4836 14.1307 15.69 13.8085C15.8964 13.4864 16.0063 13.1119 16.0067 12.7293V8.696L16.006 8.69667Z" fill="var(--fill-0, #FEFEFE)"/>
</g>
</svg>
