<svg overflow="visible" style="display: block;" viewBox="0 0 15.9985 15.9998" fill="white" xmlns="http://www.w3.org/2000/svg">
<path id="Vector" d="M15.4136 4.74791L13.8042 3.13791L15.1376 1.80457L14.1949 0.861906L12.8616 2.19524L11.2522 0.585906C11.0665 0.400153 10.846 0.252804 10.6034 0.152273C10.3607 0.0517428 10.1006 0 9.83791 0C9.57523 0 9.31513 0.0517428 9.07246 0.152273C8.82979 0.252804 8.60929 0.400153 8.42357 0.585906L6.53824 2.47124L9.56157 5.49524L5.49491 9.56191L2.47091 6.53857L0.585573 8.42391C0.210631 8.79896 0 9.30758 0 9.83791C0 10.3682 0.210631 10.8769 0.585573 11.2519L2.19491 12.8619L0.861573 14.1952L1.80424 15.1379L3.13757 13.8046L4.74691 15.4139C4.93263 15.5997 5.15312 15.747 5.39579 15.8475C5.63847 15.9481 5.89857 15.9998 6.16124 15.9998C6.42391 15.9998 6.68401 15.9481 6.92668 15.8475C7.16936 15.747 7.38985 15.5997 7.57557 15.4139L9.46091 13.5286L6.43757 10.5046L10.5042 6.43791L13.5276 9.46124L15.4129 7.57591C15.7878 7.20085 15.9985 6.69223 15.9985 6.16191C15.9985 5.63158 15.7885 5.12296 15.4136 4.74791ZM6.63291 14.4712C6.57099 14.5332 6.49747 14.5824 6.41653 14.6159C6.3356 14.6495 6.24885 14.6668 6.16124 14.6668C6.07363 14.6668 5.98688 14.6495 5.90595 14.6159C5.82501 14.5824 5.75149 14.5332 5.68957 14.4712L1.52824 10.3092C1.40326 10.1842 1.33305 10.0147 1.33305 9.83791C1.33305 9.66113 1.40326 9.49159 1.52824 9.36657L2.47091 8.42391L7.57557 13.5286L6.63291 14.4712ZM14.4709 6.63257L13.5282 7.57591L8.42357 2.47124L9.36624 1.52857C9.42816 1.46659 9.50168 1.41742 9.58261 1.38387C9.66354 1.35032 9.7503 1.33305 9.83791 1.33305C9.92552 1.33305 10.0123 1.35032 10.0932 1.38387C10.1741 1.41742 10.2477 1.46659 10.3096 1.52857L14.4709 5.69057C14.5957 5.81556 14.6658 5.98496 14.6658 6.16157C14.6658 6.33819 14.5957 6.50758 14.4709 6.63257Z" fill="black"/>
</svg>
