<svg width="16" height="16" viewBox="0 0 16 16" fill="none" xmlns="http://www.w3.org/2000/svg">
    <g clip-path="url(#clip0_468_997)">
        <path d="M3.28598 14.5996C4.06568 15.3793 5.33471 15.3793 6.11441 14.5996L14.5997 6.11436C15.3794 5.33466 15.3794 4.06564 14.5997 3.28593L11.2999 -0.0138989L-0.01385 11.2998L3.28598 14.5996ZM13.6569 4.22874C13.7819 4.35377 13.8521 4.52333 13.8521 4.70015C13.8521 4.87696 13.7819 5.04653 13.6569 5.17155L5.1716 13.6568C5.04658 13.7819 4.87701 13.8521 4.7002 13.8521C4.52338 13.8521 4.35382 13.7819 4.22879 13.6568L1.87177 11.2998L3.28598 9.8856L4.7002 11.2998L5.643 10.357L4.22879 8.94279L5.1716 7.99998L6.58581 9.41419L7.52862 8.47138L6.11441 7.05717L7.05722 6.11436L8.47143 7.52857L9.41424 6.58576L8.00003 5.17155L8.94284 4.22874L10.357 5.64296L11.2999 4.70015L9.88565 3.28593L11.2999 1.87172L13.6569 4.22874Z" fill="#C6C5CA"/>
    </g>
    <defs>
        <clipPath id="clip0_468_997">
            <rect width="16" height="16" fill="white"/>
        </clipPath>
    </defs>
</svg>
