<svg overflow="visible" style="display: block;" viewBox="0 0 16.0014 16.0033" fill="none" xmlns="http://www.w3.org/2000/svg">
<g id="Group">
<path id="Vector" d="M12.6674 2.66667H12.6C12.4453 1.91439 12.036 1.23843 11.4411 0.752689C10.8462 0.26695 10.1021 0.00112291 9.33403 0L3.33403 0C1.49603 0 0.00070097 1.49533 0.00070097 3.33333V11.9033C-0.035299 13.012 1.32337 13.74 2.2267 13.0947L4.2047 11.776C4.6647 13.0673 5.8867 14 7.33403 14H11.132L13.774 15.7613C14.678 16.406 16.036 15.6787 16.0007 14.57V6C16.0007 4.162 14.5054 2.66667 12.6674 2.66667ZM1.4867 11.9853C1.45337 12.038 1.30803 11.9593 1.33403 11.9033V3.33333C1.33403 2.23067 2.23137 1.33333 3.33403 1.33333H9.33403C10.4367 1.33333 11.334 2.23067 11.334 3.33333V8C11.334 9.10267 10.4367 10 9.33403 10H4.66737C4.53537 9.99933 4.41203 10.052 4.29737 10.112L1.4867 11.9853ZM14.6674 14.57C14.6934 14.6273 14.5454 14.7053 14.514 14.652L11.704 12.7787C11.5944 12.7057 11.4657 12.6668 11.334 12.6667H7.33403C6.92177 12.6653 6.52001 12.5365 6.18389 12.2978C5.84777 12.059 5.59376 11.7222 5.4567 11.3333H9.33403C11.172 11.3333 12.6674 9.838 12.6674 8V4C13.77 4 14.6674 4.89733 14.6674 6V14.57ZM5.13403 8H4.0007C3.82389 8 3.65432 7.92976 3.5293 7.80474C3.40427 7.67971 3.33403 7.51014 3.33403 7.33333V4C3.33403 3.82319 3.40427 3.65362 3.5293 3.5286C3.65432 3.40357 3.82389 3.33333 4.0007 3.33333H5.13403C5.27548 3.33333 5.41114 3.38952 5.51116 3.48954C5.61118 3.58956 5.66737 3.72522 5.66737 3.86667C5.66737 4.00812 5.61118 4.14377 5.51116 4.24379C5.41114 4.34381 5.27548 4.4 5.13403 4.4H4.40003V5.134H5.13403C5.27548 5.134 5.41114 5.19019 5.51116 5.29021C5.61118 5.39023 5.66737 5.52588 5.66737 5.66733C5.66737 5.80878 5.61118 5.94444 5.51116 6.04446C5.41114 6.14448 5.27548 6.20067 5.13403 6.20067H4.40003V6.93467H5.13403C5.27548 6.93467 5.41114 6.99086 5.51116 7.09088C5.61118 7.1909 5.66737 7.32655 5.66737 7.468C5.66737 7.60945 5.61118 7.7451 5.51116 7.84512C5.41114 7.94514 5.27548 8.00133 5.13403 8.00133V8ZM6.33403 7.502V3.94267C6.33391 3.80411 6.38101 3.66965 6.46757 3.56146C6.55413 3.45327 6.67497 3.37781 6.81017 3.34753C6.94538 3.31724 7.08686 3.33394 7.2113 3.39486C7.33574 3.45579 7.4357 3.5573 7.4947 3.68267L8.45003 5.70333V3.83133C8.45003 3.69926 8.5025 3.57259 8.5959 3.47919C8.68929 3.3858 8.81596 3.33333 8.94803 3.33333C9.08011 3.33333 9.20678 3.3858 9.30017 3.47919C9.39357 3.57259 9.44604 3.69926 9.44604 3.83133V7.39067C9.44533 7.52867 9.39784 7.66235 9.31134 7.76988C9.22484 7.87741 9.10443 7.95243 8.96978 7.98269C8.83514 8.01295 8.69421 7.99665 8.57002 7.93647C8.44583 7.87628 8.34572 7.77577 8.28604 7.65133L7.33137 5.63467V7.502C7.33137 7.63408 7.2789 7.76075 7.18551 7.85414C7.09211 7.94753 6.96545 8 6.83337 8C6.70129 8 6.57462 7.94753 6.48123 7.85414C6.38784 7.76075 6.33537 7.63408 6.33537 7.502H6.33403Z" fill="var(--fill-0, #4F5152)"/>
</g>
</svg>
