<svg overflow="visible" style="display: block;" viewBox="0 0 16.0095 14.6667" fill="none" xmlns="http://www.w3.org/2000/svg">
<path id="Vector" d="M1.32732 0.666667C1.32732 0.489856 1.39756 0.320287 1.52258 0.195262C1.64761 0.070238 1.81718 1.54875e-07 1.99399 1.54875e-07H5.27132C5.8079 -0.000163396 6.33658 0.12921 6.81245 0.377125C7.28832 0.625041 7.6973 0.984172 8.00465 1.424L11.414 6.302C11.4642 6.37383 11.4998 6.45485 11.5187 6.54043C11.5376 6.62601 11.5394 6.71447 11.5241 6.80077C11.5088 6.88707 11.4767 6.96951 11.4295 7.04338C11.3824 7.11726 11.3212 7.18112 11.2493 7.23133C11.1775 7.28154 11.0965 7.31711 11.0109 7.33601C10.9253 7.35491 10.8368 7.35676 10.7505 7.34147C10.6643 7.32618 10.5818 7.29404 10.5079 7.24689C10.4341 7.19974 10.3702 7.1385 10.32 7.06667L8.00465 3.75333L2.38932 7.87133C2.24663 7.97601 2.06821 8.01971 1.8933 7.99283C1.71839 7.96595 1.56133 7.87069 1.45665 7.728C1.35198 7.58531 1.30828 7.40689 1.33516 7.23198C1.36204 7.05707 1.4573 6.90001 1.59999 6.79533L7.24065 2.662L6.91065 2.19067C6.72663 1.92632 6.48149 1.71033 6.19607 1.56106C5.91066 1.4118 5.59341 1.33367 5.27132 1.33333H1.99399C1.81718 1.33333 1.64761 1.2631 1.52258 1.13807C1.39756 1.01305 1.32732 0.843478 1.32732 0.666667ZM14.8827 12.9933C14.6386 13.2126 14.322 13.3337 13.994 13.3333C13.7039 13.3338 13.42 13.2501 13.1765 13.0923C12.9331 12.9346 12.7407 12.7096 12.6227 12.4447C12.5766 12.3148 12.4915 12.2024 12.379 12.123C12.2665 12.0435 12.1321 12.0008 11.9943 12.0008C11.8566 12.0008 11.7222 12.0435 11.6097 12.123C11.4972 12.2024 11.412 12.3148 11.366 12.4447C11.2475 12.7094 11.055 12.9343 10.8116 13.092C10.5682 13.2498 10.2844 13.3337 9.99432 13.3337C9.70427 13.3337 9.42042 13.2498 9.17703 13.092C8.93363 12.9343 8.7411 12.7094 8.62265 12.4447C8.57661 12.3148 8.49148 12.2024 8.37897 12.123C8.26645 12.0435 8.13208 12.0008 7.99432 12.0008C7.85656 12.0008 7.72219 12.0435 7.60967 12.123C7.49716 12.2024 7.41203 12.3148 7.36599 12.4447C7.24754 12.7094 7.05501 12.9343 6.81161 13.092C6.56822 13.2498 6.28437 13.3337 5.99432 13.3337C5.70427 13.3337 5.42042 13.2498 5.17703 13.092C4.93363 12.9343 4.7411 12.7094 4.62265 12.4447C4.57661 12.3148 4.49148 12.2024 4.37897 12.123C4.26645 12.0435 4.13208 12.0008 3.99432 12.0008C3.85656 12.0008 3.72219 12.0435 3.60967 12.123C3.49716 12.2024 3.41203 12.3148 3.36599 12.4447C3.24774 12.7096 3.05519 12.9346 2.81168 13.0923C2.56816 13.25 2.28412 13.3338 1.99399 13.3333C1.66594 13.333 1.34955 13.2117 1.10532 12.9927C0.973287 12.8773 0.801121 12.8186 0.626111 12.8293C0.451101 12.8399 0.287339 12.9191 0.170293 13.0497C0.0532482 13.1802 -0.00765641 13.3516 0.000771315 13.5267C0.00919904 13.7019 0.0862805 13.8666 0.21532 13.9853C0.70412 14.4237 1.33744 14.6663 1.99399 14.6667C2.74056 14.6602 3.45628 14.3679 3.99399 13.85C4.52809 14.3735 5.24614 14.6667 5.99399 14.6667C6.74184 14.6667 7.45988 14.3735 7.99399 13.85C8.52809 14.3735 9.24614 14.6667 9.99399 14.6667C10.7418 14.6667 11.4599 14.3735 11.994 13.85C12.5315 14.3682 13.2474 14.6605 13.994 14.6667C14.6508 14.6673 15.2846 14.4243 15.7727 13.9847C15.8409 13.9271 15.8969 13.8564 15.9374 13.7768C15.9778 13.6971 16.0018 13.6102 16.0079 13.5211C16.0141 13.432 16.0023 13.3426 15.9733 13.2581C15.9442 13.1737 15.8985 13.0959 15.8388 13.0295C15.7791 12.963 15.7067 12.9093 15.6258 12.8714C15.5449 12.8335 15.4573 12.8122 15.368 12.8088C15.2788 12.8055 15.1898 12.8201 15.1063 12.8518C15.0228 12.8834 14.9472 12.9316 14.8827 12.9933ZM1.99399 11.3333C2.74056 11.3269 3.45628 11.0346 3.99399 10.5167C4.52809 11.0401 5.24614 11.3333 5.99399 11.3333C6.74184 11.3333 7.45988 11.0401 7.99399 10.5167C8.52809 11.0401 9.24614 11.3333 9.99399 11.3333C10.7418 11.3333 11.4599 11.0401 11.994 10.5167C12.5315 11.0348 13.2474 11.3271 13.994 11.3333C14.6508 11.3339 15.2846 11.0909 15.7727 10.6513C15.8409 10.5938 15.8969 10.5231 15.9374 10.4434C15.9778 10.3638 16.0018 10.2768 16.0079 10.1877C16.0141 10.0986 16.0023 10.0092 15.9733 9.92477C15.9442 9.84032 15.8985 9.76257 15.8388 9.69614C15.7791 9.62971 15.7067 9.57594 15.6258 9.53804C15.5449 9.50014 15.4573 9.47887 15.368 9.4755C15.2788 9.47213 15.1898 9.48672 15.1063 9.51842C15.0228 9.55011 14.9465 9.59826 14.882 9.66C14.6381 9.87911 14.3218 10.0002 13.994 10C13.7039 10.0005 13.42 9.91676 13.1765 9.75901C12.9331 9.60127 12.7407 9.37628 12.6227 9.11133C12.5766 8.9815 12.4915 8.86911 12.379 8.78963C12.2665 8.71015 12.1321 8.66747 11.9943 8.66747C11.8566 8.66747 11.7222 8.71015 11.6097 8.78963C11.4972 8.86911 11.412 8.9815 11.366 9.11133C11.2475 9.3761 11.055 9.60092 10.8116 9.75868C10.5682 9.91643 10.2844 10.0004 9.99432 10.0004C9.70427 10.0004 9.42042 9.91643 9.17703 9.75868C8.93363 9.60092 8.7411 9.3761 8.62265 9.11133C8.57661 8.9815 8.49148 8.86911 8.37897 8.78963C8.26645 8.71015 8.13208 8.66747 7.99432 8.66747C7.85656 8.66747 7.72219 8.71015 7.60967 8.78963C7.49716 8.86911 7.41203 8.9815 7.36599 9.11133C7.24754 9.3761 7.05501 9.60092 6.81161 9.75868C6.56822 9.91643 6.28437 10.0004 5.99432 10.0004C5.70427 10.0004 5.42042 9.91643 5.17703 9.75868C4.93363 9.60092 4.7411 9.3761 4.62265 9.11133C4.57661 8.9815 4.49148 8.86911 4.37897 8.78963C4.26645 8.71015 4.13208 8.66747 3.99432 8.66747C3.85656 8.66747 3.72219 8.71015 3.60967 8.78963C3.49716 8.86911 3.41203 8.9815 3.36599 9.11133C3.24774 9.37628 3.05519 9.60125 2.81168 9.75898C2.56816 9.91671 2.28412 10.0004 1.99399 10C1.66594 9.99963 1.34955 9.87834 1.10532 9.65933C0.973287 9.54397 0.801121 9.48526 0.626111 9.49593C0.451101 9.50659 0.287339 9.58577 0.170293 9.71632C0.0532482 9.84687 -0.00765641 10.0183 0.000771315 10.1934C0.00919904 10.3685 0.0862805 10.5333 0.21532 10.652C0.70412 11.0903 1.33744 11.3329 1.99399 11.3333ZM12.3273 4.66667C12.657 4.66667 12.9792 4.56892 13.2533 4.38578C13.5274 4.20265 13.741 3.94235 13.8671 3.63781C13.9933 3.33326 14.0263 2.99815 13.962 2.67485C13.8977 2.35155 13.7389 2.05458 13.5058 1.82149C13.2727 1.5884 12.9758 1.42967 12.6525 1.36536C12.3292 1.30105 11.9941 1.33405 11.6895 1.4602C11.385 1.58635 11.1247 1.79997 10.9415 2.07405C10.7584 2.34813 10.6607 2.67036 10.6607 3C10.6607 3.44203 10.8362 3.86595 11.1488 4.17851C11.4614 4.49107 11.8853 4.66667 12.3273 4.66667Z" fill="var(--fill-0, white)"/>
</svg>
