<svg width="512" height="512" viewBox="0 0 512 512" fill="none" xmlns="http://www.w3.org/2000/svg">
    <g clip-path="url(#clip0_478_7419)">
        <path d="M277.433 0C312.773 0 341.532 28.759 341.532 64.0996C341.532 99.4402 312.773 128.199 277.433 128.199H213.434C200.183 128.185 187.26 124.07 176.441 116.419C165.642 108.781 157.465 97.994 153.031 85.5332L152.975 85.5322H149.433C114.203 85.5324 85.5324 114.203 85.5322 149.433V213.333H501.1C507.23 213.333 512.199 218.302 512.199 224.433V245.1C512.199 251.23 507.23 256.199 501.1 256.199H466.254L425.134 502.925C424.242 508.277 419.611 512.199 414.185 512.199H98.0146C92.5886 512.199 87.9576 508.277 87.0654 502.925L45.9453 256.199H11.0996C4.96925 256.199 0 251.23 0 245.1V224.433C0 218.302 4.96925 213.333 11.0996 213.333H42.667V149.433C42.6672 90.5617 90.5617 42.6672 149.433 42.667H153.032C157.466 30.206 165.642 19.418 176.441 11.7803C186.922 4.36837 199.376 0.274434 212.191 0.0126953L212.302 0.0107422L213.329 0H277.433ZM124.921 469.333H387.278L422.787 256.199H89.3916L124.921 469.333ZM213.433 42.8662C201.733 42.8664 192.199 52.4004 192.199 64.0996C192.199 75.7988 201.733 85.3328 213.433 85.333H277.433C289.132 85.333 298.667 75.7986 298.667 64.0996C298.667 52.4006 289.132 42.8662 277.433 42.8662H213.433Z" fill="black"/>
    </g>
    <defs>
        <clipPath id="clip0_478_7419">
            <rect width="512" height="512" fill="white"/>
        </clipPath>
    </defs>
</svg>
