<svg overflow="visible" style="display: block;" viewBox="0 0 16 16.0072" fill="none" xmlns="http://www.w3.org/2000/svg">
<g id="Group">
<path id="Vector" d="M12.6667 1.34055H10.974C10.513 0.815094 9.92046 0.421848 9.25719 0.201226C8.59392 -0.0193955 7.88387 -0.0594352 7.2 0.0852216C6.36712 0.255068 5.61419 0.696604 5.05933 1.34055H3.33333C2.4496 1.34161 1.60237 1.69314 0.97748 2.31803C0.352588 2.94293 0.00105857 3.79016 0 4.67389L0 12.6739C0.00105857 13.5576 0.352588 14.4049 0.97748 15.0297C1.60237 15.6546 2.4496 16.0062 3.33333 16.0072H12.6667C13.5504 16.0062 14.3976 15.6546 15.0225 15.0297C15.6474 14.4049 15.9989 13.5576 16 12.6739V4.67389C15.9989 3.79016 15.6474 2.94293 15.0225 2.31803C14.3976 1.69314 13.5504 1.34161 12.6667 1.34055ZM8 1.34055C8.70724 1.34055 9.38552 1.62151 9.88562 2.1216C10.3857 2.6217 10.6667 3.29998 10.6667 4.00722C10.6667 4.18403 10.5964 4.3536 10.4714 4.47863C10.3464 4.60365 10.1768 4.67389 10 4.67389H8.57867L9.22133 3.71055C9.31946 3.56345 9.35514 3.38338 9.3205 3.20998C9.28587 3.03657 9.18377 2.88402 9.03667 2.78589C8.88956 2.68776 8.7095 2.65209 8.53609 2.68672C8.36268 2.72135 8.21013 2.82345 8.112 2.97056L6.97667 4.67389H6C5.82319 4.67389 5.65362 4.60365 5.5286 4.47863C5.40357 4.3536 5.33333 4.18403 5.33333 4.00722C5.33333 3.29998 5.61428 2.6217 6.11438 2.1216C6.61448 1.62151 7.29276 1.34055 8 1.34055ZM14.6667 12.6739C14.6667 13.2043 14.456 13.713 14.0809 14.0881C13.7058 14.4632 13.1971 14.6739 12.6667 14.6739H3.33333C2.8029 14.6739 2.29419 14.4632 1.91912 14.0881C1.54405 13.713 1.33333 13.2043 1.33333 12.6739V4.67389C1.33333 4.14346 1.54405 3.63475 1.91912 3.25967C2.29419 2.8846 2.8029 2.67389 3.33333 2.67389H4.262C4.08927 3.14708 4.0006 3.64682 4 4.15056C4.00053 4.64281 4.19631 5.11475 4.54439 5.46283C4.89247 5.81091 5.36441 6.00669 5.85667 6.00722H10.1433C10.6213 6.01162 11.0823 5.82995 11.4288 5.50063C11.7753 5.17132 11.9801 4.72016 12 4.24256C12.0067 3.71085 11.9293 3.18142 11.7707 2.67389H12.6667C13.1971 2.67389 13.7058 2.8846 14.0809 3.25967C14.456 3.63475 14.6667 4.14346 14.6667 4.67389V12.6739Z" fill="var(--fill-0, #C6C5CA)"/>
</g>
</svg>
