<svg width="512" height="512" viewBox="0 0 512 512" fill="none" xmlns="http://www.w3.org/2000/svg">
    <g clip-path="url(#clip0_478_7403)">
        <path d="M42.6665 53.3333C42.6665 39.1885 48.2855 25.6229 58.2875 15.621C68.2894 5.61903 81.8549 0 95.9998 0C110.145 0 123.71 5.61903 133.712 15.621C143.714 25.6229 149.333 39.1885 149.333 53.3333C149.333 67.4782 143.714 81.0438 133.712 91.0457C123.71 101.048 110.145 106.667 95.9998 106.667C81.8549 106.667 68.2894 101.048 58.2875 91.0457C48.2855 81.0438 42.6665 67.4782 42.6665 53.3333ZM298.667 170.667C304.324 170.667 309.751 168.419 313.751 164.418C317.752 160.417 320 154.991 320 149.333C320 143.675 317.752 138.249 313.751 134.248C309.751 130.248 304.324 128 298.667 128H85.3332C38.2718 128 -0.000182619 166.272 -0.000182619 213.333V277.333C-0.000182619 282.991 2.24743 288.418 6.24821 292.418C10.249 296.419 15.6752 298.667 21.3332 298.667C26.9911 298.667 32.4173 296.419 36.4181 292.418C40.4189 288.418 42.6665 282.991 42.6665 277.333V213.333C42.6665 189.803 61.8025 170.667 85.3332 170.667H128V277.333C128 282.991 130.247 288.418 134.248 292.418C138.249 296.419 143.675 298.667 149.333 298.667C154.991 298.667 160.417 296.419 164.418 292.418C168.419 288.418 170.666 282.991 170.666 277.333V170.667H298.667ZM416 0H213.333C207.675 0 202.249 2.24761 198.248 6.24839C194.247 10.2492 192 15.6754 192 21.3333C192 26.9913 194.247 32.4175 198.248 36.4183C202.249 40.4191 207.675 42.6667 213.333 42.6667H416C445.397 42.6667 469.333 66.5813 469.333 96V202.667C469.333 232.085 445.397 256 416 256H405.333V234.667C405.333 229.009 403.086 223.583 399.085 219.582C395.084 215.581 389.658 213.333 384 213.333H341.333C335.675 213.333 330.249 215.581 326.248 219.582C322.247 223.583 320 229.009 320 234.667V256H234.666C229.009 256 223.582 258.248 219.582 262.248C215.581 266.249 213.333 271.675 213.333 277.333C213.333 282.991 215.581 288.418 219.582 292.418C223.582 296.419 229.009 298.667 234.666 298.667H416C468.928 298.667 512 255.595 512 202.667V96C512 43.072 468.928 0 416 0ZM437.333 448C410.517 448 385.429 458.197 368.533 475.968C364.632 480.07 362.52 485.554 362.662 491.213C362.804 496.872 365.188 502.243 369.29 506.144C373.393 510.045 378.876 512.157 384.535 512.015C390.194 511.873 395.565 509.489 399.467 505.387C416.96 486.976 457.707 486.976 475.221 505.387C477.148 507.423 479.458 509.059 482.019 510.2C484.58 511.342 487.341 511.966 490.144 512.037C492.947 512.109 495.736 511.626 498.352 510.616C500.968 509.607 503.358 508.091 505.387 506.155C507.418 504.225 509.049 501.913 510.188 499.353C511.326 496.792 511.948 494.032 512.02 491.231C512.091 488.43 511.61 485.642 510.603 483.027C509.597 480.412 508.085 478.02 506.155 475.989C489.259 458.219 464.192 448.021 437.354 448.021L437.333 448ZM256 448C229.184 448 204.096 458.197 187.2 475.968C183.299 480.07 181.187 485.554 181.329 491.213C181.471 496.872 183.855 502.243 187.957 506.144C192.059 510.045 197.543 512.157 203.202 512.015C208.861 511.873 214.232 509.489 218.133 505.387C235.626 486.976 276.373 486.976 293.888 505.387C295.815 507.423 298.125 509.059 300.686 510.2C303.247 511.342 306.008 511.966 308.811 512.037C311.614 512.109 314.403 511.626 317.019 510.616C319.634 509.607 322.025 508.091 324.053 506.155C326.085 504.225 327.716 501.913 328.854 499.353C329.992 496.792 330.615 494.032 330.686 491.231C330.757 488.43 330.276 485.642 329.27 483.027C328.264 480.412 326.752 478.02 324.821 475.989C307.925 458.219 282.858 448.021 256.021 448.021L256 448ZM74.6665 448C47.8505 448 22.7625 458.197 5.86648 475.968C1.96533 480.07 -0.146531 485.554 -0.00450352 491.213C0.137524 496.872 2.5218 502.243 6.62382 506.144C10.7258 510.045 16.2096 512.157 21.8687 512.015C27.5278 511.873 32.8987 509.489 36.7998 505.387C54.2932 486.976 95.0398 486.976 112.554 505.387C114.481 507.423 116.792 509.059 119.353 510.2C121.914 511.342 124.675 511.966 127.478 512.037C130.28 512.109 133.07 511.626 135.685 510.616C138.301 509.607 140.692 508.091 142.72 506.155C144.751 504.225 146.383 501.913 147.521 499.353C148.659 496.792 149.281 494.032 149.353 491.231C149.424 488.43 148.943 485.642 147.937 483.027C146.93 480.412 145.419 478.02 143.488 475.989C126.592 458.219 101.525 448.021 74.6878 448.021L74.6665 448ZM117.333 384C117.462 378.318 116.454 372.668 114.368 367.381C112.283 362.094 109.163 357.277 105.19 353.212C101.218 349.148 96.4731 345.918 91.2351 343.713C85.9972 341.507 80.3714 340.37 74.6881 340.369C69.0047 340.367 63.3783 341.501 58.1393 343.704C52.9003 345.907 48.1541 349.135 44.1796 353.197C40.205 357.259 37.0821 362.075 34.9942 367.361C32.9063 372.647 31.8955 378.297 32.0212 383.979C32.2677 395.127 36.8686 405.735 44.839 413.533C52.8095 421.331 63.516 425.699 74.6667 425.702C85.8174 425.705 96.5261 421.342 104.5 413.548C112.475 405.754 117.081 395.148 117.333 384ZM298.667 384C298.795 378.318 297.787 372.668 295.702 367.381C293.617 362.094 290.496 357.277 286.523 353.212C282.551 349.148 277.806 345.918 272.568 343.713C267.331 341.507 261.705 340.37 256.021 340.369C250.338 340.367 244.712 341.501 239.473 343.704C234.234 345.907 229.487 349.135 225.513 353.197C221.538 357.259 218.415 362.075 216.328 367.361C214.24 372.647 213.229 378.297 213.354 383.979C213.601 395.127 218.202 405.735 226.172 413.533C234.143 421.331 244.849 425.699 256 425.702C267.151 425.705 277.859 421.342 285.834 413.548C293.808 405.754 298.414 395.148 298.667 384ZM480 384C480.128 378.318 479.12 372.668 477.035 367.381C474.95 362.094 471.829 357.277 467.857 353.212C463.884 349.148 459.14 345.918 453.902 343.713C448.664 341.507 443.038 340.37 437.355 340.369C431.671 340.367 426.045 341.501 420.806 343.704C415.567 345.907 410.821 349.135 406.846 353.197C402.872 357.259 399.749 362.075 397.661 367.361C395.573 372.647 394.562 378.297 394.688 383.979C394.934 395.127 399.535 405.735 407.506 413.533C415.476 421.331 426.183 425.699 437.333 425.702C448.484 425.705 459.193 421.342 467.167 413.548C475.142 405.754 479.748 395.148 480 384Z" fill="black"/>
    </g>
    <defs>
        <clipPath id="clip0_478_7403">
            <rect width="512" height="512" fill="white"/>
        </clipPath>
    </defs>
</svg>
