<svg viewBox="0 0 512 512" fill="currentColor" xmlns="http://www.w3.org/2000/svg">
<path d="M512 42.6667C512 76.6934 472.107 121.984 446.891 142.208C441.164 146.823 434.032 149.339 426.677 149.339C419.323 149.339 412.19 146.823 406.464 142.208C381.227 121.984 341.355 76.6934 341.355 42.6667C341.355 31.3508 345.85 20.4984 353.851 12.4968C361.853 4.49526 372.705 3.71749e-05 384.021 3.71749e-05C395.337 3.71749e-05 406.19 4.49526 414.191 12.4968C422.193 20.4984 426.688 31.3508 426.688 42.6667C426.688 31.3508 431.183 20.4984 439.185 12.4968C447.186 4.49526 458.039 3.71749e-05 469.355 3.71749e-05C480.671 3.71749e-05 491.523 4.49526 499.525 12.4968C507.526 20.4984 512 31.3508 512 42.6667ZM512.192 277.781C512.192 244.864 487.317 216.917 454.528 214.08C445.717 213.312 436.395 212.843 426.859 212.843C399.872 212.843 374.784 227.797 355.947 243.243C374.016 255.531 385.344 267.179 386.368 268.224C390.314 272.278 392.489 277.734 392.413 283.391C392.337 289.048 390.017 294.443 385.963 298.389C381.909 302.336 376.453 304.51 370.796 304.434C365.139 304.358 359.744 302.038 355.797 297.984C354.837 297.045 311.723 255.04 266.859 256C195.904 257.579 146.197 311.829 134.997 325.376C163.541 250.155 141.611 143.061 153.365 109.845L199.168 96.0001C203.017 95.7994 206.646 94.1386 209.313 91.356C211.981 88.5735 213.487 84.8785 213.525 81.024L213.931 69.632L244.203 58.624C253.888 54.7627 258.88 43.6267 254.699 34.0907C246.912 16.2987 225.131 -0.511963 192.192 -0.511963C160.192 -0.511963 134.293 22.3574 134.293 22.3574C8.98133 118.741 0.0853365 291.093 3.11219e-06 367.915C-0.0389711 379.306 2.24083 390.586 6.70061 401.068C11.1604 411.55 17.7068 421.014 25.9413 428.885C60.5867 461.995 151.573 511.979 256.213 511.979C355.904 511.979 432.512 484.757 474.944 465.003C486.06 459.873 495.476 451.669 502.08 441.361C508.684 431.052 512.2 419.069 512.213 406.827V277.76L512.192 277.781Z" fill="currentColor"/>
</svg>
