<svg viewBox="0 0 512 512" fill="currentColor" xmlns="http://www.w3.org/2000/svg">
<path d="M149.333 106.667C149.333 78.3769 160.571 51.2458 180.575 31.2419C200.579 11.2381 227.71 0 256 0C284.29 0 311.421 11.2381 331.425 31.2419C351.429 51.2458 362.667 78.3769 362.667 106.667C362.667 117.983 358.171 128.835 350.17 136.837C342.168 144.838 331.316 149.333 320 149.333H260.267L295.04 97.1733C298.18 92.4659 299.322 86.7039 298.213 81.1548C297.105 75.6057 293.838 70.7242 289.131 67.584C284.423 64.4438 278.661 63.3023 273.112 64.4105C267.563 65.5187 262.682 68.7859 259.541 73.4933L209.067 149.333H192C180.684 149.333 169.832 144.838 161.83 136.837C153.829 128.835 149.333 117.983 149.333 106.667ZM405.333 42.6667H390.955C400.44 62.6676 405.352 84.5303 405.333 106.667C405.333 129.298 396.343 151.003 380.34 167.006C364.337 183.01 342.632 192 320 192H180.608L180.779 191.723C160.59 190.034 141.772 180.827 128.047 165.925C114.322 151.023 106.692 131.512 106.667 111.253C106.771 87.4856 112.217 64.0454 122.603 42.6667H106.667C78.3769 42.6667 51.2458 53.9047 31.2419 73.9086C11.2381 93.9125 0 121.044 0 149.333L0 405.333C0 419.341 2.75901 433.212 8.11952 446.153C13.48 459.094 21.337 470.853 31.2419 480.758C51.2458 500.762 78.3769 512 106.667 512H405.333C419.341 512 433.212 509.241 446.153 503.881C459.094 498.52 470.853 490.663 480.758 480.758C490.663 470.853 498.52 459.094 503.881 446.153C509.241 433.212 512 419.341 512 405.333V149.333C512 135.326 509.241 121.455 503.881 108.514C498.52 95.5724 490.663 83.8135 480.758 73.9086C470.853 64.0037 459.094 56.1467 446.153 50.7862C433.212 45.4257 419.341 42.6667 405.333 42.6667Z" fill="currentColor"/>
</svg>
