<svg viewBox="0 0 512 512" fill="currentColor" xmlns="http://www.w3.org/2000/svg">
<path d="M341.333 53.3333C341.333 39.1885 346.952 25.6229 356.954 15.621C366.956 5.61903 380.522 0 394.667 0C408.812 0 422.377 5.61903 432.379 15.621C442.381 25.6229 448 39.1885 448 53.3333C448 67.4782 442.381 81.0438 432.379 91.0457C422.377 101.048 408.812 106.667 394.667 106.667C380.522 106.667 366.956 101.048 356.954 91.0457C346.952 81.0438 341.333 67.4782 341.333 53.3333ZM480 213.333H445.845L433.323 189.973C423.321 171.234 408.411 155.567 390.189 144.65C371.967 133.734 351.119 127.978 329.877 128H234.24C217.963 128 202.773 135.296 192.597 148.011L156.331 193.344C153.706 196.625 151.752 200.39 150.583 204.426C149.413 208.461 149.049 212.687 149.513 216.863C149.976 221.039 151.258 225.083 153.284 228.763C155.311 232.444 158.042 235.69 161.323 238.315C164.603 240.94 168.369 242.893 172.404 244.063C176.44 245.232 180.666 245.596 184.842 245.132C189.018 244.669 193.062 243.387 196.742 241.361C200.423 239.335 203.668 236.603 206.293 233.323L239.36 192H281.813C281.813 192 240.491 255.936 239.744 257.792C225.963 291.371 238.251 329.835 270.187 349.995L362.645 402.624V480C362.645 488.487 366.017 496.626 372.018 502.627C378.019 508.629 386.158 512 394.645 512C403.132 512 411.272 508.629 417.273 502.627C423.274 496.626 426.645 488.487 426.645 480V396.416C426.645 377.28 416.32 359.531 399.68 350.059L332.075 311.595L383.488 232.491L392.405 249.152C396.949 257.673 403.725 264.797 412.008 269.761C420.29 274.725 429.768 277.343 439.424 277.333H479.979C488.466 277.333 496.605 273.962 502.606 267.961C508.607 261.96 511.979 253.82 511.979 245.333C511.979 236.846 508.607 228.707 502.606 222.706C496.605 216.705 488.487 213.333 480 213.333ZM74.6667 85.3333H202.667C211.154 85.3333 219.293 81.9619 225.294 75.9608C231.295 69.9596 234.667 61.8203 234.667 53.3333C234.667 44.8464 231.295 36.7071 225.294 30.7059C219.293 24.7048 211.154 21.3333 202.667 21.3333H74.6667C66.1797 21.3333 58.0404 24.7048 52.0393 30.7059C46.0381 36.7071 42.6667 44.8464 42.6667 53.3333C42.6667 61.8203 46.0381 69.9596 52.0393 75.9608C58.0404 81.9619 66.1797 85.3333 74.6667 85.3333ZM74.6667 234.667H32C27.7977 234.667 23.6366 235.494 19.7541 237.103C15.8717 238.711 12.3441 241.068 9.37258 244.039C6.40111 247.011 4.04401 250.538 2.43586 254.421C0.827704 258.303 0 262.464 0 266.667C0 270.869 0.827704 275.03 2.43586 278.913C4.04401 282.795 6.40111 286.323 9.37258 289.294C12.3441 292.266 15.8717 294.623 19.7541 296.231C23.6366 297.839 27.7977 298.667 32 298.667H74.6667C78.869 298.667 83.0301 297.839 86.9125 296.231C90.795 294.623 94.3226 292.266 97.2941 289.294C100.266 286.323 102.623 282.795 104.231 278.913C105.839 275.03 106.667 270.869 106.667 266.667C106.667 262.464 105.839 258.303 104.231 254.421C102.623 250.538 100.266 247.011 97.2941 244.039C94.3226 241.068 90.795 238.711 86.9125 237.103C83.0301 235.494 78.869 234.667 74.6667 234.667ZM96 128H53.3333C44.8464 128 36.7071 131.371 30.7059 137.373C24.7048 143.374 21.3333 151.513 21.3333 160C21.3333 168.487 24.7048 176.626 30.7059 182.627C36.7071 188.629 44.8464 192 53.3333 192H96C104.487 192 112.626 188.629 118.627 182.627C124.629 176.626 128 168.487 128 160C128 151.513 124.629 143.374 118.627 137.373C112.626 131.371 104.487 128 96 128ZM252.437 378.517C246.232 374.894 238.988 373.464 231.871 374.458C224.754 375.453 218.179 378.814 213.205 384H159.979C151.492 384 143.352 387.371 137.351 393.373C131.35 399.374 127.979 407.513 127.979 416C127.979 424.487 131.35 432.626 137.351 438.627C143.352 444.629 151.492 448 159.979 448H230.549C236.139 447.998 241.631 446.532 246.479 443.747C251.326 440.962 255.359 436.956 258.176 432.128L263.936 422.293C268.212 414.962 269.402 406.234 267.246 398.026C265.09 389.817 259.764 382.801 252.437 378.517Z" fill="currentColor"/>
</svg>
