<svg viewBox="0 0 512 512" fill="currentColor" xmlns="http://www.w3.org/2000/svg">
<path d="M356.885 380.395C359.942 383.347 362.379 386.878 364.057 390.782C365.734 394.686 366.616 398.885 366.653 403.134C366.69 407.383 365.881 411.597 364.272 415.529C362.663 419.462 360.287 423.035 357.282 426.039C354.277 429.044 350.705 431.42 346.772 433.029C342.839 434.638 338.625 435.448 334.376 435.411C330.128 435.374 325.929 434.491 322.024 432.814C318.12 431.137 314.589 428.699 311.637 425.643L212.779 326.784C210.798 324.803 208.447 323.232 205.859 322.16C203.271 321.088 200.497 320.537 197.696 320.537C194.895 320.537 192.121 321.088 189.533 322.16C186.945 323.232 184.594 324.803 182.613 326.784C180.633 328.765 179.061 331.116 177.99 333.704C176.918 336.292 176.366 339.066 176.366 341.867C176.366 344.668 176.918 347.442 177.99 350.03C179.061 352.617 180.633 354.969 182.613 356.95L272.448 446.784C275.504 449.736 277.942 453.267 279.619 457.171C281.296 461.075 282.179 465.274 282.216 469.523C282.253 473.772 281.443 477.986 279.834 481.919C278.225 485.851 275.849 489.424 272.845 492.429C269.84 495.433 266.267 497.809 262.335 499.418C258.402 501.027 254.188 501.837 249.939 501.8C245.69 501.763 241.491 500.881 237.587 499.203C233.683 497.526 230.152 495.088 227.2 492.032L127.509 392.342C64.448 330.816 0 248.79 0 170.667C0 88.3202 62.208 21.3335 138.667 21.3335C176.491 21.3335 205.461 35.4562 227.52 51.1362L149.888 128.107C135.765 142.208 128 160.981 128 180.928C128 200.875 135.765 219.627 149.845 233.707C156.762 240.67 164.993 246.191 174.061 249.948C183.128 253.705 192.852 255.625 202.667 255.595C211.755 255.595 220.523 253.781 228.8 250.709L356.907 380.416L356.885 380.395ZM307.648 181.867L263.019 226.197L393.365 354.582C399.366 360.581 407.504 363.951 415.989 363.951C424.475 363.951 432.612 360.581 438.613 354.582C457.728 335.467 441.365 314.304 441.365 314.304L307.648 181.867ZM372.416 22.5708C337.557 22.7842 304.448 37.9308 278.933 61.6962L180.011 159.958C176.954 162.909 174.517 166.44 172.839 170.345C171.162 174.249 170.28 178.448 170.243 182.697C170.206 186.946 171.015 191.159 172.624 195.092C174.233 199.025 176.609 202.598 179.614 205.602C182.619 208.607 186.191 210.983 190.124 212.592C194.057 214.201 198.271 215.01 202.52 214.974C206.768 214.937 210.967 214.054 214.872 212.377C218.776 210.7 222.307 208.262 225.259 205.206L278.528 152.299C286.521 144.359 297.331 139.902 308.597 139.902C319.864 139.902 330.673 144.359 338.667 152.299L473.579 286.23C498.987 245.227 511.957 206.827 511.957 171.904C511.957 89.5575 448.853 22.5708 372.395 22.5708H372.416Z" fill="currentColor"/>
</svg>
