<svg  viewBox="0 0 512 512" fill="currentColor" xmlns="http://www.w3.org/2000/svg">
<path d="M383.467 313.621L325.291 236.565L337.963 219.947C344.453 211.318 352.849 204.306 362.497 199.458C372.144 194.61 382.782 192.058 393.579 192C415.552 192.533 436.117 201.664 449.728 219.029L496.853 277.76L473.237 308.907L460.352 292.8C456.754 288.323 452.192 284.716 447.006 282.249C441.82 279.781 436.143 278.517 430.4 278.549C424.795 278.542 419.26 279.798 414.208 282.225C409.155 284.652 404.714 288.186 401.216 292.565L383.467 313.621ZM141.461 296.597C143.503 293.973 146.128 291.861 149.129 290.429C152.129 288.997 155.423 288.285 158.747 288.349C162.071 288.413 165.335 289.252 168.278 290.799C171.221 292.346 173.763 294.557 175.701 297.259L211.712 347.691L280.704 248.363L226.859 177.045C217.875 165.794 205.726 157.494 191.979 153.216V106.688L243.477 74.496C247.061 72.2536 250.016 69.1369 252.065 65.4387C254.113 61.7405 255.188 57.5823 255.188 53.3547C255.188 49.127 254.113 44.9688 252.065 41.2706C250.016 37.5725 247.061 34.4558 243.477 32.2133L200.704 5.44C195.018 1.8838 188.446 -0.00131825 181.739 6.91631e-07H170.667C165.617 0.0425228 160.751 1.89644 156.953 5.2244C153.155 8.55237 150.678 13.1332 149.973 18.1333C149.589 18.688 149.333 19.6053 149.333 21.3333V153.067C135.6 157.295 123.517 165.68 114.752 177.067L66.1333 239.616L118.571 326.208L141.44 296.619L141.461 296.597ZM243.648 376.533C240.026 381.615 235.247 385.762 229.704 388.629C224.162 391.497 218.016 393.003 211.776 393.024H211.648C205.458 392.997 199.362 391.502 193.863 388.661C188.363 385.82 183.615 381.715 180.011 376.683L157.675 345.408L149.44 356.053C142.101 366.165 130.027 372.117 116.544 371.605C110.103 371.332 103.831 369.464 98.2907 366.169C92.7502 362.874 88.1146 358.254 84.8 352.725L38.144 275.691L22.4853 295.851C7.90712 314.545 -0.00699257 337.574 4.63591e-06 361.28V448C4.63591e-06 464.974 6.74284 481.253 18.7452 493.255C30.7475 505.257 47.0262 512 64 512H437.355C440.811 512 444.309 511.147 447.488 509.419C455.587 507.314 463.33 504.021 470.464 499.648L307.776 284.181L243.648 376.533ZM503.211 339.968C499.646 344.482 495.109 348.133 489.938 350.652C484.768 353.171 479.096 354.492 473.344 354.517H473.088C467.43 354.496 461.85 353.205 456.758 350.738C451.666 348.272 447.193 344.693 443.669 340.267L430.592 323.925L409.835 348.565L500.693 468.907C507.84 456.427 512 442.048 512 426.688V328.384L503.211 339.989V339.968Z" fill="currentColor"/>
</svg>
