<svg viewBox="0 0 512 512" fill="currentColor" xmlns="http://www.w3.org/2000/svg">
<path d="M85.3333 85.3333C85.3333 61.76 128 0 128 0C128 0 170.667 61.76 170.667 85.3333C170.667 96.6492 166.171 107.502 158.17 115.503C150.168 123.505 139.316 128 128 128C116.684 128 105.832 123.505 97.8301 115.503C89.8286 107.502 85.3333 96.6492 85.3333 85.3333ZM320 359.637C339.523 333.676 365.068 312.853 394.432 298.965C382.976 260.309 362.901 224.256 335.083 196.416L320 181.312L304.917 196.416C277.099 224.235 257.024 260.309 245.568 298.965C274.932 312.853 300.477 333.676 320 359.637ZM492.8 320C391.061 320 320 391.061 320 492.8C320 391.061 248.939 320 147.2 320H128V339.2C128 445.781 194.219 512 300.8 512H339.2C445.803 512 512 445.781 512 339.2V320H492.8ZM85.3333 339.2V277.333H147.2C167.595 277.333 187.093 279.744 205.419 284.352C214.542 254.632 228.3 226.538 246.187 201.109C246.507 201.664 246.357 201.387 246.187 201.109C245.909 200.64 246.016 200.832 246.144 201.067C234.539 184.64 213.589 170.688 192 170.688H64C28.7147 170.688 0 199.403 0 234.688V512.021H162.475C113.557 474.688 85.3333 414.699 85.3333 339.221V339.2Z" fill="currentColor"/>
</svg>
